<mxfile host="app.diagrams.net" modified="2020-11-25T08:57:14.583Z" agent="5.0 (X11)" etag="D3IG92xXDeZz8f2IHLQL" version="13.10.2" type="github">
  <diagram id="eScWJQXt0Zm0XJ2qCBdH" name="Page-1">
    <mxGraphModel dx="5057" dy="2407" grid="1" gridSize="10" guides="1" tooltips="1" connect="1" arrows="1" fold="1" page="1" pageScale="1" pageWidth="850" pageHeight="1100" math="0" shadow="0">
      <root>
        <mxCell id="0" />
        <mxCell id="1" parent="0" />
        <mxCell id="EXkiIg57ss1Epixbn9bt-1" style="edgeStyle=orthogonalEdgeStyle;rounded=0;orthogonalLoop=1;jettySize=auto;html=1;entryX=0;entryY=0.5;entryDx=0;entryDy=0;" edge="1" parent="1" source="EXkiIg57ss1Epixbn9bt-3" target="EXkiIg57ss1Epixbn9bt-44">
          <mxGeometry relative="1" as="geometry" />
        </mxCell>
        <mxCell id="EXkiIg57ss1Epixbn9bt-3" value="" style="rounded=0;whiteSpace=wrap;html=1;fillColor=#6d8764;strokeColor=#3A5431;fontColor=#ffffff;" vertex="1" parent="1">
          <mxGeometry x="-330" y="100" width="730" height="570" as="geometry" />
        </mxCell>
        <mxCell id="EXkiIg57ss1Epixbn9bt-4" value="" style="shape=note;whiteSpace=wrap;html=1;backgroundOutline=1;darkOpacity=0.05;size=10;" vertex="1" parent="1">
          <mxGeometry x="206" y="261.25" width="30" height="37.5" as="geometry" />
        </mxCell>
        <mxCell id="EXkiIg57ss1Epixbn9bt-5" value="" style="shape=note;whiteSpace=wrap;html=1;backgroundOutline=1;darkOpacity=0.05;size=10;" vertex="1" parent="1">
          <mxGeometry x="216" y="271.25" width="30" height="37.5" as="geometry" />
        </mxCell>
        <mxCell id="EXkiIg57ss1Epixbn9bt-6" value="" style="shape=note;whiteSpace=wrap;html=1;backgroundOutline=1;darkOpacity=0.05;size=10;" vertex="1" parent="1">
          <mxGeometry x="226" y="281.25" width="30" height="37.5" as="geometry" />
        </mxCell>
        <mxCell id="EXkiIg57ss1Epixbn9bt-7" value="" style="shape=note;whiteSpace=wrap;html=1;backgroundOutline=1;darkOpacity=0.05;size=10;" vertex="1" parent="1">
          <mxGeometry x="236" y="291.25" width="30" height="37.5" as="geometry" />
        </mxCell>
        <mxCell id="EXkiIg57ss1Epixbn9bt-8" value="" style="shape=note;whiteSpace=wrap;html=1;backgroundOutline=1;darkOpacity=0.05;size=10;" vertex="1" parent="1">
          <mxGeometry x="256" y="308.75" width="30" height="37.5" as="geometry" />
        </mxCell>
        <mxCell id="EXkiIg57ss1Epixbn9bt-9" value="" style="shape=note;whiteSpace=wrap;html=1;backgroundOutline=1;darkOpacity=0.05;size=10;" vertex="1" parent="1">
          <mxGeometry x="266" y="318.75" width="30" height="37.5" as="geometry" />
        </mxCell>
        <mxCell id="EXkiIg57ss1Epixbn9bt-10" value="" style="shape=note;whiteSpace=wrap;html=1;backgroundOutline=1;darkOpacity=0.05;size=10;" vertex="1" parent="1">
          <mxGeometry x="276" y="328.75" width="30" height="37.5" as="geometry" />
        </mxCell>
        <mxCell id="EXkiIg57ss1Epixbn9bt-11" value="" style="shape=note;whiteSpace=wrap;html=1;backgroundOutline=1;darkOpacity=0.05;size=10;" vertex="1" parent="1">
          <mxGeometry x="286" y="338.75" width="30" height="37.5" as="geometry" />
        </mxCell>
        <mxCell id="EXkiIg57ss1Epixbn9bt-12" value="" style="shape=note;whiteSpace=wrap;html=1;backgroundOutline=1;darkOpacity=0.05;size=10;" vertex="1" parent="1">
          <mxGeometry x="216" y="298.75" width="30" height="37.5" as="geometry" />
        </mxCell>
        <mxCell id="EXkiIg57ss1Epixbn9bt-13" value="" style="edgeStyle=segmentEdgeStyle;endArrow=classic;html=1;" edge="1" parent="1" target="EXkiIg57ss1Epixbn9bt-14">
          <mxGeometry width="50" height="50" relative="1" as="geometry">
            <mxPoint x="200" y="271.25" as="sourcePoint" />
            <mxPoint x="160" y="246.25" as="targetPoint" />
          </mxGeometry>
        </mxCell>
        <mxCell id="EXkiIg57ss1Epixbn9bt-14" value="&lt;font style=&quot;font-size: 17px&quot;&gt;X&lt;sub&gt;1&lt;/sub&gt;&lt;/font&gt;" style="text;html=1;strokeColor=none;fillColor=none;align=center;verticalAlign=middle;whiteSpace=wrap;rounded=0;" vertex="1" parent="1">
          <mxGeometry x="140" y="236.25" width="40" height="20" as="geometry" />
        </mxCell>
        <mxCell id="EXkiIg57ss1Epixbn9bt-15" value="" style="edgeStyle=segmentEdgeStyle;endArrow=classic;html=1;" edge="1" parent="1">
          <mxGeometry width="50" height="50" relative="1" as="geometry">
            <mxPoint x="316" y="356.25" as="sourcePoint" />
            <mxPoint x="366" y="381.25" as="targetPoint" />
          </mxGeometry>
        </mxCell>
        <mxCell id="EXkiIg57ss1Epixbn9bt-16" value="&lt;font style=&quot;font-size: 17px&quot;&gt;X&lt;sub&gt;M&lt;/sub&gt;&lt;/font&gt;" style="text;html=1;strokeColor=none;fillColor=none;align=center;verticalAlign=middle;whiteSpace=wrap;rounded=0;" vertex="1" parent="1">
          <mxGeometry x="346" y="391.25" width="40" height="20" as="geometry" />
        </mxCell>
        <mxCell id="EXkiIg57ss1Epixbn9bt-17" value="" style="endArrow=classic;html=1;" edge="1" parent="1">
          <mxGeometry relative="1" as="geometry">
            <mxPoint x="216" y="318.75" as="sourcePoint" />
            <mxPoint x="126" y="318.75" as="targetPoint" />
          </mxGeometry>
        </mxCell>
        <mxCell id="EXkiIg57ss1Epixbn9bt-18" value="X&lt;sub&gt;m&lt;/sub&gt;" style="edgeLabel;resizable=0;html=1;align=center;verticalAlign=middle;" connectable="0" vertex="1" parent="EXkiIg57ss1Epixbn9bt-17">
          <mxGeometry relative="1" as="geometry" />
        </mxCell>
        <mxCell id="EXkiIg57ss1Epixbn9bt-19" style="edgeStyle=orthogonalEdgeStyle;rounded=0;orthogonalLoop=1;jettySize=auto;html=1;" edge="1" parent="1" source="EXkiIg57ss1Epixbn9bt-20" target="EXkiIg57ss1Epixbn9bt-22">
          <mxGeometry relative="1" as="geometry">
            <mxPoint x="-60" y="317.5" as="targetPoint" />
          </mxGeometry>
        </mxCell>
        <mxCell id="EXkiIg57ss1Epixbn9bt-20" value="&lt;div&gt;Pairwise squared euclidean distance between samples.&lt;/div&gt;&lt;div&gt;(&lt;font data-font-src=&quot;https://fonts.googleapis.com/css?family=Dancing+Script&quot; face=&quot;Dancing Script&quot;&gt;D&lt;/font&gt;)&lt;br&gt;&lt;/div&gt;" style="rounded=0;whiteSpace=wrap;html=1;" vertex="1" parent="1">
          <mxGeometry x="4" y="287.5" width="120" height="60" as="geometry" />
        </mxCell>
        <mxCell id="EXkiIg57ss1Epixbn9bt-21" style="edgeStyle=orthogonalEdgeStyle;rounded=0;orthogonalLoop=1;jettySize=auto;html=1;" edge="1" parent="1" source="EXkiIg57ss1Epixbn9bt-22" target="EXkiIg57ss1Epixbn9bt-24">
          <mxGeometry relative="1" as="geometry">
            <mxPoint x="-180" y="317.5" as="targetPoint" />
          </mxGeometry>
        </mxCell>
        <mxCell id="EXkiIg57ss1Epixbn9bt-22" value="&lt;div&gt;Normalize &lt;font data-font-src=&quot;https://fonts.googleapis.com/css?family=Dancing+Script&quot; face=&quot;Dancing Script&quot;&gt;&lt;br&gt;&lt;/font&gt;&lt;/div&gt;&lt;div&gt;&lt;font data-font-src=&quot;https://fonts.googleapis.com/css?family=Dancing+Script&quot; face=&quot;Dancing Script&quot;&gt;&lt;font face=&quot;Helvetica&quot;&gt;(&lt;/font&gt;&lt;b&gt;D&lt;/b&gt; = D/D&lt;sub&gt;max&lt;/sub&gt;&lt;font face=&quot;Helvetica&quot;&gt;)&lt;/font&gt;&lt;/font&gt;&lt;/div&gt;" style="rounded=0;whiteSpace=wrap;html=1;" vertex="1" parent="1">
          <mxGeometry x="-140" y="287.5" width="120" height="60" as="geometry" />
        </mxCell>
        <mxCell id="EXkiIg57ss1Epixbn9bt-23" style="edgeStyle=orthogonalEdgeStyle;rounded=0;orthogonalLoop=1;jettySize=auto;html=1;" edge="1" parent="1" source="EXkiIg57ss1Epixbn9bt-24" target="EXkiIg57ss1Epixbn9bt-26">
          <mxGeometry relative="1" as="geometry">
            <mxPoint x="-240" y="376.25" as="targetPoint" />
          </mxGeometry>
        </mxCell>
        <mxCell id="EXkiIg57ss1Epixbn9bt-24" value="&lt;div&gt;Construct the similarity matrix (S) using the Gaussian kernel.&lt;/div&gt;&lt;div&gt;(Distance = &lt;b&gt;&lt;font data-font-src=&quot;https://fonts.googleapis.com/css?family=Dancing+Script&quot; face=&quot;Dancing Script&quot;&gt;D&lt;/font&gt;&lt;/b&gt;; &lt;span class=&quot;Grek headword&quot;&gt;Ïƒ = &lt;font data-font-src=&quot;https://fonts.googleapis.com/css?family=Dancing+Script&quot; face=&quot;Dancing Script&quot;&gt;D&lt;sub&gt;max&lt;/sub&gt;&lt;/font&gt;&lt;/span&gt;)&lt;br&gt;&lt;/div&gt;" style="rounded=0;whiteSpace=wrap;html=1;" vertex="1" parent="1">
          <mxGeometry x="-310" y="287.5" width="140" height="60" as="geometry" />
        </mxCell>
        <mxCell id="EXkiIg57ss1Epixbn9bt-25" style="edgeStyle=orthogonalEdgeStyle;rounded=0;orthogonalLoop=1;jettySize=auto;html=1;" edge="1" parent="1" source="EXkiIg57ss1Epixbn9bt-26" target="EXkiIg57ss1Epixbn9bt-28">
          <mxGeometry relative="1" as="geometry">
            <mxPoint x="-240" y="466.25" as="targetPoint" />
          </mxGeometry>
        </mxCell>
        <mxCell id="EXkiIg57ss1Epixbn9bt-26" value="Construct degree matrix (D) and Laplacian matrix (L)" style="rounded=0;whiteSpace=wrap;html=1;" vertex="1" parent="1">
          <mxGeometry x="-300" y="371.25" width="120" height="60" as="geometry" />
        </mxCell>
        <mxCell id="EXkiIg57ss1Epixbn9bt-27" style="edgeStyle=orthogonalEdgeStyle;rounded=0;orthogonalLoop=1;jettySize=auto;html=1;" edge="1" parent="1" source="EXkiIg57ss1Epixbn9bt-28" target="EXkiIg57ss1Epixbn9bt-39">
          <mxGeometry relative="1" as="geometry">
            <mxPoint x="-100" y="556.25" as="targetPoint" />
          </mxGeometry>
        </mxCell>
        <mxCell id="EXkiIg57ss1Epixbn9bt-28" value="&lt;div&gt;Return normalized Laplacian matrix&lt;/div&gt;&lt;div&gt;(&lt;b&gt;L&lt;sub&gt;m&lt;/sub&gt; &lt;/b&gt;=&lt;b&gt; &lt;/b&gt;I - D&lt;sup&gt;-1&lt;/sup&gt;LD&lt;sup&gt;-1&lt;/sup&gt;)&lt;br&gt;&lt;/div&gt;" style="rounded=0;whiteSpace=wrap;html=1;" vertex="1" parent="1">
          <mxGeometry x="-160" y="371.25" width="120" height="60" as="geometry" />
        </mxCell>
        <mxCell id="EXkiIg57ss1Epixbn9bt-29" value="" style="endArrow=classic;html=1;" edge="1" parent="1">
          <mxGeometry relative="1" as="geometry">
            <mxPoint x="230.65999999999985" y="336.25" as="sourcePoint" />
            <mxPoint x="231" y="406.25" as="targetPoint" />
          </mxGeometry>
        </mxCell>
        <mxCell id="EXkiIg57ss1Epixbn9bt-30" value="X&lt;sub&gt;m&lt;/sub&gt;" style="edgeLabel;resizable=0;html=1;align=center;verticalAlign=middle;" connectable="0" vertex="1" parent="EXkiIg57ss1Epixbn9bt-29">
          <mxGeometry relative="1" as="geometry" />
        </mxCell>
        <mxCell id="EXkiIg57ss1Epixbn9bt-31" style="edgeStyle=orthogonalEdgeStyle;rounded=0;orthogonalLoop=1;jettySize=auto;html=1;entryX=0.5;entryY=0;entryDx=0;entryDy=0;" edge="1" parent="1" source="EXkiIg57ss1Epixbn9bt-32" target="EXkiIg57ss1Epixbn9bt-34">
          <mxGeometry relative="1" as="geometry" />
        </mxCell>
        <mxCell id="EXkiIg57ss1Epixbn9bt-32" value="&lt;div&gt;Pairwise correlation distance between samples.&lt;/div&gt;&lt;div&gt;( &lt;b&gt;&lt;font data-font-src=&quot;https://fonts.googleapis.com/css?family=Dancing+Script&quot; face=&quot;Dancing Script&quot;&gt;d&lt;/font&gt;&lt;/b&gt; )&lt;br&gt;&lt;/div&gt;" style="rounded=0;whiteSpace=wrap;html=1;" vertex="1" parent="1">
          <mxGeometry x="171" y="406.25" width="120" height="60" as="geometry" />
        </mxCell>
        <mxCell id="EXkiIg57ss1Epixbn9bt-33" style="edgeStyle=orthogonalEdgeStyle;rounded=0;orthogonalLoop=1;jettySize=auto;html=1;entryX=0.464;entryY=0;entryDx=0;entryDy=0;entryPerimeter=0;" edge="1" parent="1" source="EXkiIg57ss1Epixbn9bt-34" target="EXkiIg57ss1Epixbn9bt-36">
          <mxGeometry relative="1" as="geometry" />
        </mxCell>
        <mxCell id="EXkiIg57ss1Epixbn9bt-34" value="&lt;div&gt;Normalize &lt;font data-font-src=&quot;https://fonts.googleapis.com/css?family=Dancing+Script&quot; face=&quot;Dancing Script&quot;&gt;&lt;br&gt;&lt;/font&gt;&lt;/div&gt;&lt;div&gt;&lt;font data-font-src=&quot;https://fonts.googleapis.com/css?family=Dancing+Script&quot; face=&quot;Dancing Script&quot;&gt;&lt;font face=&quot;Helvetica&quot;&gt;(&lt;/font&gt;d = d/d&lt;sub&gt;max&lt;/sub&gt;&lt;font face=&quot;Helvetica&quot;&gt;)&lt;/font&gt;&lt;/font&gt;&lt;/div&gt;" style="rounded=0;whiteSpace=wrap;html=1;" vertex="1" parent="1">
          <mxGeometry x="171" y="486.25" width="120" height="60" as="geometry" />
        </mxCell>
        <mxCell id="EXkiIg57ss1Epixbn9bt-35" style="edgeStyle=orthogonalEdgeStyle;rounded=0;orthogonalLoop=1;jettySize=auto;html=1;" edge="1" parent="1" source="EXkiIg57ss1Epixbn9bt-36" target="EXkiIg57ss1Epixbn9bt-38">
          <mxGeometry relative="1" as="geometry">
            <mxPoint x="236" y="646.25" as="targetPoint" />
          </mxGeometry>
        </mxCell>
        <mxCell id="EXkiIg57ss1Epixbn9bt-36" value="&lt;div&gt;Construct a kernel matrix (&lt;font data-font-src=&quot;https://fonts.googleapis.com/css?family=Dancing+Script&quot; face=&quot;Dancing Script&quot;&gt;k&lt;/font&gt;) using the Gaussian kernel.&lt;/div&gt;&lt;div&gt;(Distance = &lt;font face=&quot;Dancing Script&quot;&gt;&lt;b&gt;d&lt;/b&gt;&lt;/font&gt;; &lt;span class=&quot;Grek headword&quot;&gt;Ïƒ = &lt;font data-font-src=&quot;https://fonts.googleapis.com/css?family=Dancing+Script&quot; face=&quot;Dancing Script&quot;&gt;d&lt;sub&gt;max&lt;/sub&gt;&lt;/font&gt;&lt;/span&gt;)&lt;br&gt;&lt;/div&gt;" style="rounded=0;whiteSpace=wrap;html=1;" vertex="1" parent="1">
          <mxGeometry x="166" y="566.25" width="140" height="60" as="geometry" />
        </mxCell>
        <mxCell id="EXkiIg57ss1Epixbn9bt-37" style="edgeStyle=orthogonalEdgeStyle;rounded=0;orthogonalLoop=1;jettySize=auto;html=1;" edge="1" parent="1" source="EXkiIg57ss1Epixbn9bt-38" target="EXkiIg57ss1Epixbn9bt-39">
          <mxGeometry relative="1" as="geometry">
            <mxPoint x="-80" y="596.25" as="targetPoint" />
          </mxGeometry>
        </mxCell>
        <mxCell id="EXkiIg57ss1Epixbn9bt-38" value="&lt;div&gt;Return a centered matrix &lt;b&gt;&lt;font data-font-src=&quot;https://fonts.googleapis.com/css?family=Dancing+Script&quot; face=&quot;Dancing Script&quot;&gt;K&lt;/font&gt;&lt;/b&gt;&lt;/div&gt;&lt;div&gt;&lt;font data-font-src=&quot;https://fonts.googleapis.com/css?family=Dancing+Script&quot; face=&quot;Dancing Script&quot;&gt;(&lt;b&gt;K&lt;/b&gt; = k &lt;font face=&quot;Times New Roman&quot;&gt;&lt;b&gt;- 1.&lt;font data-font-src=&quot;https://fonts.googleapis.com/css?family=Dancing+Script&quot; face=&quot;Dancing Script&quot;&gt;k&lt;/font&gt; - &lt;/b&gt;&lt;font data-font-src=&quot;https://fonts.googleapis.com/css?family=Dancing+Script&quot; face=&quot;Dancing Script&quot;&gt;k&lt;/font&gt;&lt;b&gt;.1 + 1.&lt;/b&gt;&lt;font data-font-src=&quot;https://fonts.googleapis.com/css?family=Dancing+Script&quot; face=&quot;Dancing Script&quot;&gt;k&lt;/font&gt;&lt;b&gt;.1&lt;/b&gt;&lt;/font&gt;)&lt;/font&gt;&lt;/div&gt;" style="rounded=0;whiteSpace=wrap;html=1;" vertex="1" parent="1">
          <mxGeometry x="20" y="566.25" width="120" height="60" as="geometry" />
        </mxCell>
        <mxCell id="EXkiIg57ss1Epixbn9bt-39" value="&lt;div&gt;Take weighted sum of both matrices&lt;/div&gt;&lt;div&gt;&lt;b&gt;&lt;font data-font-src=&quot;https://fonts.googleapis.com/css?family=Dancing+Script&quot; face=&quot;Dancing Script&quot;&gt;G&lt;sub&gt;m&lt;/sub&gt; &lt;font face=&quot;Helvetica&quot;&gt;=&lt;/font&gt; &lt;/font&gt;&lt;/b&gt;&lt;font data-font-src=&quot;https://fonts.googleapis.com/css?family=Dancing+Script&quot; face=&quot;Dancing Script&quot;&gt;&lt;font face=&quot;Helvetica&quot;&gt;(1 - &lt;i&gt;b&lt;/i&gt;).(&lt;b&gt;I&lt;/b&gt; - &lt;font data-font-src=&quot;https://fonts.googleapis.com/css?family=Dancing+Script&quot; face=&quot;Dancing Script&quot;&gt;K&lt;/font&gt;) +&lt;i&gt; b&lt;/i&gt;. &lt;b&gt;L&lt;sub&gt;m&lt;/sub&gt;&lt;/b&gt;&lt;/font&gt;&lt;/font&gt;&lt;br&gt;&lt;/div&gt;" style="rounded=0;whiteSpace=wrap;html=1;fillColor=#60a917;strokeColor=#2D7600;fontColor=#ffffff;" vertex="1" parent="1">
          <mxGeometry x="-270" y="516.25" width="190" height="60" as="geometry" />
        </mxCell>
        <mxCell id="EXkiIg57ss1Epixbn9bt-40" value="" style="shape=curlyBracket;whiteSpace=wrap;html=1;rounded=1;rotation=135;" vertex="1" parent="1">
          <mxGeometry x="296" y="195" width="20" height="152.5" as="geometry" />
        </mxCell>
        <mxCell id="EXkiIg57ss1Epixbn9bt-41" value="&lt;font style=&quot;font-size: 22px&quot;&gt;M modalities&lt;/font&gt;" style="text;html=1;strokeColor=none;fillColor=none;align=center;verticalAlign=middle;whiteSpace=wrap;rounded=0;rotation=45;" vertex="1" parent="1">
          <mxGeometry x="276" y="241.25" width="130" height="20" as="geometry" />
        </mxCell>
        <mxCell id="EXkiIg57ss1Epixbn9bt-42" value="&lt;font style=&quot;font-size: 30px&quot;&gt;Find &lt;/font&gt;&lt;font style=&quot;font-size: 30px&quot;&gt;&lt;b&gt;&lt;font data-font-src=&quot;https://fonts.googleapis.com/css?family=Dancing+Script&quot; face=&quot;Dancing Script&quot;&gt;G&lt;/font&gt;&lt;/b&gt; matrix for all the modalities&lt;/font&gt;" style="text;html=1;strokeColor=none;fillColor=none;align=center;verticalAlign=middle;whiteSpace=wrap;rounded=0;" vertex="1" parent="1">
          <mxGeometry x="-122" y="135" width="314" height="20" as="geometry" />
        </mxCell>
        <mxCell id="EXkiIg57ss1Epixbn9bt-43" style="edgeStyle=orthogonalEdgeStyle;rounded=0;orthogonalLoop=1;jettySize=auto;html=1;entryX=0;entryY=0.5;entryDx=0;entryDy=0;" edge="1" parent="1" source="EXkiIg57ss1Epixbn9bt-44" target="EXkiIg57ss1Epixbn9bt-57">
          <mxGeometry relative="1" as="geometry" />
        </mxCell>
        <mxCell id="EXkiIg57ss1Epixbn9bt-44" value="" style="rounded=0;whiteSpace=wrap;html=1;" vertex="1" parent="1">
          <mxGeometry x="530" y="210" width="660" height="350" as="geometry" />
        </mxCell>
        <mxCell id="EXkiIg57ss1Epixbn9bt-45" value="&lt;font style=&quot;font-size: 25px&quot;&gt;&lt;br&gt;&lt;/font&gt;&lt;div style=&quot;font-size: 25px&quot;&gt;&lt;font style=&quot;font-size: 25px&quot;&gt;Sort the list of &lt;/font&gt;&lt;font style=&quot;font-size: 25px&quot;&gt;&lt;b&gt;&lt;font data-font-src=&quot;https://fonts.googleapis.com/css?family=Dancing+Script&quot; style=&quot;font-size: 25px&quot; face=&quot;Dancing Script&quot;&gt;G&lt;sub&gt;m&lt;/sub&gt;&lt;/font&gt;&lt;/b&gt;&lt;/font&gt;&lt;font style=&quot;font-size: 25px&quot;&gt;&lt;b&gt;&lt;font data-font-src=&quot;https://fonts.googleapis.com/css?family=Dancing+Script&quot; style=&quot;font-size: 25px&quot; face=&quot;Dancing Script&quot;&gt;&lt;sub&gt; &lt;/sub&gt;&lt;/font&gt;&lt;/b&gt;&lt;/font&gt;&lt;font style=&quot;font-size: 25px&quot;&gt;matrices based on the relevance of each modality.&lt;/font&gt;&lt;font style=&quot;font-size: 25px&quot;&gt; &lt;font style=&quot;font-size: 25px&quot;&gt;That gives a sorted list of &lt;/font&gt;&lt;font style=&quot;font-size: 25px&quot;&gt;&lt;font style=&quot;font-size: 25px&quot;&gt;&lt;b&gt;&lt;font data-font-src=&quot;https://fonts.googleapis.com/css?family=Dancing+Script&quot; style=&quot;font-size: 25px&quot; face=&quot;Dancing Script&quot;&gt;G&lt;/font&gt;&lt;/b&gt;&lt;/font&gt; matrices as following- &lt;br&gt;&lt;/font&gt;&lt;/font&gt;&lt;/div&gt;&lt;div style=&quot;font-size: 25px&quot;&gt;&lt;font style=&quot;font-size: 25px&quot;&gt;(in decreasing order of relevance)&lt;/font&gt;&lt;/div&gt;" style="text;html=1;strokeColor=none;fillColor=none;align=center;verticalAlign=middle;whiteSpace=wrap;rounded=0;" vertex="1" parent="1">
          <mxGeometry x="525" y="220" width="670" height="88.75" as="geometry" />
        </mxCell>
        <mxCell id="EXkiIg57ss1Epixbn9bt-46" value="&lt;font style=&quot;font-size: 40px&quot;&gt;&lt;b&gt;&lt;font data-font-src=&quot;https://fonts.googleapis.com/css?family=Dancing+Script&quot; style=&quot;font-size: 40px&quot; face=&quot;Dancing Script&quot;&gt;G&lt;sup&gt;1&lt;/sup&gt;&lt;/font&gt;&lt;/b&gt;&lt;/font&gt;&lt;font style=&quot;font-size: 40px&quot;&gt;&lt;b&gt;&lt;font data-font-src=&quot;https://fonts.googleapis.com/css?family=Dancing+Script&quot; style=&quot;font-size: 40px&quot; face=&quot;Dancing Script&quot;&gt;&lt;font style=&quot;font-size: 40px&quot;&gt;&lt;b&gt;&lt;font data-font-src=&quot;https://fonts.googleapis.com/css?family=Dancing+Script&quot; style=&quot;font-size: 40px&quot; face=&quot;Dancing Script&quot;&gt;&lt;font style=&quot;font-size: 40px&quot; face=&quot;Times New Roman&quot;&gt;,&lt;/font&gt;&lt;/font&gt;&lt;/b&gt;&lt;/font&gt; &lt;/font&gt;&lt;/b&gt;&lt;/font&gt;&lt;font style=&quot;font-size: 40px&quot;&gt;&lt;b&gt;&lt;font data-font-src=&quot;https://fonts.googleapis.com/css?family=Dancing+Script&quot; style=&quot;font-size: 40px&quot; face=&quot;Dancing Script&quot;&gt;&lt;font style=&quot;font-size: 40px&quot;&gt;&lt;b&gt;&lt;font data-font-src=&quot;https://fonts.googleapis.com/css?family=Dancing+Script&quot; style=&quot;font-size: 40px&quot; face=&quot;Dancing Script&quot;&gt;G&lt;sup&gt;2&lt;/sup&gt;&lt;/font&gt;&lt;/b&gt;&lt;/font&gt;&lt;/font&gt;&lt;/b&gt;&lt;/font&gt;&lt;font style=&quot;font-size: 40px&quot;&gt;&lt;b&gt;&lt;font data-font-src=&quot;https://fonts.googleapis.com/css?family=Dancing+Script&quot; style=&quot;font-size: 40px&quot; face=&quot;Dancing Script&quot;&gt;&lt;font style=&quot;font-size: 40px&quot;&gt;&lt;b&gt;&lt;font data-font-src=&quot;https://fonts.googleapis.com/css?family=Dancing+Script&quot; style=&quot;font-size: 40px&quot; face=&quot;Dancing Script&quot;&gt;&lt;font style=&quot;font-size: 40px&quot;&gt;&lt;b&gt;&lt;font data-font-src=&quot;https://fonts.googleapis.com/css?family=Dancing+Script&quot; style=&quot;font-size: 40px&quot; face=&quot;Dancing Script&quot;&gt;&lt;font style=&quot;font-size: 40px&quot; face=&quot;Times New Roman&quot;&gt;,&lt;/font&gt;&lt;/font&gt;&lt;/b&gt;&lt;/font&gt;&lt;sub&gt; &lt;/sub&gt;&lt;/font&gt;&lt;/b&gt;&lt;/font&gt;&lt;/font&gt;&lt;/b&gt;&lt;/font&gt;&lt;font style=&quot;font-size: 40px&quot;&gt;&lt;b&gt;&lt;font data-font-src=&quot;https://fonts.googleapis.com/css?family=Dancing+Script&quot; style=&quot;font-size: 40px&quot; face=&quot;Dancing Script&quot;&gt;&lt;font style=&quot;font-size: 40px&quot;&gt;&lt;b&gt;&lt;font data-font-src=&quot;https://fonts.googleapis.com/css?family=Dancing+Script&quot; style=&quot;font-size: 40px&quot; face=&quot;Dancing Script&quot;&gt;&lt;font style=&quot;font-size: 40px&quot;&gt;&lt;b&gt;&lt;font data-font-src=&quot;https://fonts.googleapis.com/css?family=Dancing+Script&quot; style=&quot;font-size: 40px&quot; face=&quot;Dancing Script&quot;&gt;G&lt;sup&gt;3&lt;/sup&gt;&lt;/font&gt;&lt;/b&gt;&lt;/font&gt;&lt;/font&gt;&lt;/b&gt;&lt;/font&gt;&lt;/font&gt;&lt;/b&gt;&lt;/font&gt;&lt;font style=&quot;font-size: 40px&quot;&gt;&lt;b&gt;&lt;font data-font-src=&quot;https://fonts.googleapis.com/css?family=Dancing+Script&quot; style=&quot;font-size: 40px&quot; face=&quot;Dancing Script&quot;&gt;&lt;font style=&quot;font-size: 40px&quot;&gt;&lt;b&gt;&lt;font data-font-src=&quot;https://fonts.googleapis.com/css?family=Dancing+Script&quot; style=&quot;font-size: 40px&quot; face=&quot;Dancing Script&quot;&gt;&lt;font style=&quot;font-size: 40px&quot;&gt;&lt;b&gt;&lt;font data-font-src=&quot;https://fonts.googleapis.com/css?family=Dancing+Script&quot; style=&quot;font-size: 40px&quot; face=&quot;Dancing Script&quot;&gt;&lt;font style=&quot;font-size: 40px&quot;&gt;&lt;b&gt;&lt;font data-font-src=&quot;https://fonts.googleapis.com/css?family=Dancing+Script&quot; style=&quot;font-size: 40px&quot; face=&quot;Dancing Script&quot;&gt;&lt;font style=&quot;font-size: 40px&quot; face=&quot;Times New Roman&quot;&gt;,&lt;/font&gt;&lt;/font&gt;&lt;/b&gt;&lt;/font&gt;...............&lt;/font&gt;&lt;/b&gt;&lt;/font&gt;&lt;/font&gt;&lt;/b&gt;&lt;/font&gt;&lt;/font&gt;&lt;/b&gt;&lt;/font&gt;&lt;font style=&quot;font-size: 40px&quot;&gt;&lt;b&gt;&lt;font data-font-src=&quot;https://fonts.googleapis.com/css?family=Dancing+Script&quot; style=&quot;font-size: 40px&quot; face=&quot;Dancing Script&quot;&gt;&lt;font style=&quot;font-size: 40px&quot;&gt;&lt;b&gt;&lt;font data-font-src=&quot;https://fonts.googleapis.com/css?family=Dancing+Script&quot; style=&quot;font-size: 40px&quot; face=&quot;Dancing Script&quot;&gt;&lt;font style=&quot;font-size: 40px&quot; face=&quot;Times New Roman&quot;&gt;, &lt;/font&gt;&lt;/font&gt;&lt;/b&gt;&lt;/font&gt;G&lt;sup&gt;M&lt;/sup&gt; &lt;br&gt;&lt;/font&gt;&lt;/b&gt;&lt;/font&gt;" style="text;html=1;strokeColor=#2D7600;fillColor=#60a917;align=center;verticalAlign=middle;whiteSpace=wrap;rounded=0;fontColor=#ffffff;" vertex="1" parent="1">
          <mxGeometry x="610" y="371.25" width="460" height="58.75" as="geometry" />
        </mxCell>
        <mxCell id="EXkiIg57ss1Epixbn9bt-48" value="&lt;font style=&quot;font-size: 25px&quot;&gt;Where superscript is the rank of the modality.&lt;br&gt;&lt;/font&gt;" style="text;html=1;strokeColor=none;fillColor=none;align=center;verticalAlign=middle;whiteSpace=wrap;rounded=0;" vertex="1" parent="1">
          <mxGeometry x="550" y="526.25" width="620" height="20" as="geometry" />
        </mxCell>
        <mxCell id="EXkiIg57ss1Epixbn9bt-49" style="edgeStyle=orthogonalEdgeStyle;rounded=0;orthogonalLoop=1;jettySize=auto;html=1;entryX=0.5;entryY=0;entryDx=0;entryDy=0;exitX=0.179;exitY=1;exitDx=0;exitDy=0;exitPerimeter=0;" edge="1" parent="1" source="EXkiIg57ss1Epixbn9bt-57" target="EXkiIg57ss1Epixbn9bt-96">
          <mxGeometry relative="1" as="geometry">
            <Array as="points">
              <mxPoint x="1750" y="630" />
              <mxPoint x="1750" y="783" />
              <mxPoint x="1333" y="783" />
            </Array>
          </mxGeometry>
        </mxCell>
        <mxCell id="EXkiIg57ss1Epixbn9bt-50" style="edgeStyle=orthogonalEdgeStyle;rounded=0;orthogonalLoop=1;jettySize=auto;html=1;entryX=0.301;entryY=0.011;entryDx=0;entryDy=0;entryPerimeter=0;" edge="1" parent="1" source="EXkiIg57ss1Epixbn9bt-57" target="EXkiIg57ss1Epixbn9bt-105">
          <mxGeometry relative="1" as="geometry">
            <Array as="points">
              <mxPoint x="1870" y="934" />
            </Array>
          </mxGeometry>
        </mxCell>
        <mxCell id="EXkiIg57ss1Epixbn9bt-51" style="edgeStyle=orthogonalEdgeStyle;rounded=0;orthogonalLoop=1;jettySize=auto;html=1;entryX=0.5;entryY=0;entryDx=0;entryDy=0;" edge="1" parent="1" source="EXkiIg57ss1Epixbn9bt-57" target="EXkiIg57ss1Epixbn9bt-114">
          <mxGeometry relative="1" as="geometry">
            <Array as="points">
              <mxPoint x="1990" y="900" />
              <mxPoint x="2678" y="900" />
            </Array>
          </mxGeometry>
        </mxCell>
        <mxCell id="EXkiIg57ss1Epixbn9bt-52" style="edgeStyle=orthogonalEdgeStyle;rounded=0;orthogonalLoop=1;jettySize=auto;html=1;" edge="1" parent="1" source="EXkiIg57ss1Epixbn9bt-57" target="EXkiIg57ss1Epixbn9bt-123">
          <mxGeometry relative="1" as="geometry">
            <Array as="points">
              <mxPoint x="2120" y="840" />
              <mxPoint x="3358" y="840" />
            </Array>
          </mxGeometry>
        </mxCell>
        <mxCell id="EXkiIg57ss1Epixbn9bt-53" style="edgeStyle=orthogonalEdgeStyle;rounded=0;orthogonalLoop=1;jettySize=auto;html=1;entryX=0;entryY=0.5;entryDx=0;entryDy=0;" edge="1" parent="1" source="EXkiIg57ss1Epixbn9bt-57" target="EXkiIg57ss1Epixbn9bt-137">
          <mxGeometry relative="1" as="geometry">
            <Array as="points">
              <mxPoint x="2220" y="755" />
            </Array>
          </mxGeometry>
        </mxCell>
        <mxCell id="EXkiIg57ss1Epixbn9bt-54" style="edgeStyle=orthogonalEdgeStyle;rounded=0;orthogonalLoop=1;jettySize=auto;html=1;entryX=0;entryY=0.5;entryDx=0;entryDy=0;" edge="1" parent="1" source="EXkiIg57ss1Epixbn9bt-57" target="EXkiIg57ss1Epixbn9bt-142">
          <mxGeometry relative="1" as="geometry">
            <Array as="points">
              <mxPoint x="2681" y="600" />
              <mxPoint x="2681" y="605" />
            </Array>
          </mxGeometry>
        </mxCell>
        <mxCell id="EXkiIg57ss1Epixbn9bt-55" style="edgeStyle=orthogonalEdgeStyle;rounded=0;orthogonalLoop=1;jettySize=auto;html=1;" edge="1" parent="1" source="EXkiIg57ss1Epixbn9bt-57" target="EXkiIg57ss1Epixbn9bt-144">
          <mxGeometry relative="1" as="geometry" />
        </mxCell>
        <mxCell id="EXkiIg57ss1Epixbn9bt-56" style="edgeStyle=orthogonalEdgeStyle;rounded=0;orthogonalLoop=1;jettySize=auto;html=1;entryX=0;entryY=0.5;entryDx=0;entryDy=0;" edge="1" parent="1" source="EXkiIg57ss1Epixbn9bt-57" target="EXkiIg57ss1Epixbn9bt-150">
          <mxGeometry relative="1" as="geometry">
            <Array as="points">
              <mxPoint x="2686" y="240" />
              <mxPoint x="2686" y="136" />
            </Array>
          </mxGeometry>
        </mxCell>
        <mxCell id="EXkiIg57ss1Epixbn9bt-57" value="" style="rounded=0;whiteSpace=wrap;html=1;" vertex="1" parent="1">
          <mxGeometry x="1682.5" y="140" width="660" height="490" as="geometry" />
        </mxCell>
        <mxCell id="EXkiIg57ss1Epixbn9bt-58" value="&lt;font style=&quot;font-size: 36px&quot;&gt;&lt;b&gt;&lt;font data-font-src=&quot;https://fonts.googleapis.com/css?family=Dancing+Script&quot; style=&quot;font-size: 36px&quot; face=&quot;Dancing Script&quot;&gt;G&lt;sup&gt;1&lt;/sup&gt;&lt;/font&gt;&lt;/b&gt;&lt;/font&gt;&lt;font style=&quot;font-size: 36px&quot;&gt;&lt;b&gt;&lt;font data-font-src=&quot;https://fonts.googleapis.com/css?family=Dancing+Script&quot; style=&quot;font-size: 36px&quot; face=&quot;Dancing Script&quot;&gt;&lt;font style=&quot;font-size: 36px&quot;&gt;&lt;b&gt;&lt;font data-font-src=&quot;https://fonts.googleapis.com/css?family=Dancing+Script&quot; style=&quot;font-size: 36px&quot; face=&quot;Dancing Script&quot;&gt;&lt;font style=&quot;font-size: 36px&quot; face=&quot;Times New Roman&quot;&gt;,&lt;/font&gt;&lt;/font&gt;&lt;/b&gt;&lt;/font&gt; &lt;/font&gt;&lt;/b&gt;&lt;/font&gt;&lt;font style=&quot;font-size: 36px&quot;&gt;&lt;b&gt;&lt;font data-font-src=&quot;https://fonts.googleapis.com/css?family=Dancing+Script&quot; style=&quot;font-size: 36px&quot; face=&quot;Dancing Script&quot;&gt;&lt;font style=&quot;font-size: 36px&quot;&gt;&lt;b&gt;&lt;font data-font-src=&quot;https://fonts.googleapis.com/css?family=Dancing+Script&quot; style=&quot;font-size: 36px&quot; face=&quot;Dancing Script&quot;&gt;G&lt;sup&gt;2&lt;/sup&gt;&lt;/font&gt;&lt;/b&gt;&lt;/font&gt;&lt;/font&gt;&lt;/b&gt;&lt;/font&gt;&lt;font style=&quot;font-size: 36px&quot;&gt;&lt;b&gt;&lt;font data-font-src=&quot;https://fonts.googleapis.com/css?family=Dancing+Script&quot; style=&quot;font-size: 36px&quot; face=&quot;Dancing Script&quot;&gt;&lt;font style=&quot;font-size: 36px&quot;&gt;&lt;b&gt;&lt;font data-font-src=&quot;https://fonts.googleapis.com/css?family=Dancing+Script&quot; style=&quot;font-size: 36px&quot; face=&quot;Dancing Script&quot;&gt;&lt;font style=&quot;font-size: 36px&quot;&gt;&lt;b&gt;&lt;font data-font-src=&quot;https://fonts.googleapis.com/css?family=Dancing+Script&quot; style=&quot;font-size: 36px&quot; face=&quot;Dancing Script&quot;&gt;&lt;font style=&quot;font-size: 36px&quot; face=&quot;Times New Roman&quot;&gt;,&lt;/font&gt;&lt;/font&gt;&lt;/b&gt;&lt;/font&gt;&lt;sub&gt; &lt;/sub&gt;&lt;/font&gt;&lt;/b&gt;&lt;/font&gt;&lt;/font&gt;&lt;/b&gt;&lt;/font&gt;&lt;font style=&quot;font-size: 36px&quot;&gt;&lt;b&gt;&lt;font data-font-src=&quot;https://fonts.googleapis.com/css?family=Dancing+Script&quot; style=&quot;font-size: 36px&quot; face=&quot;Dancing Script&quot;&gt;&lt;font style=&quot;font-size: 36px&quot;&gt;&lt;b&gt;&lt;font data-font-src=&quot;https://fonts.googleapis.com/css?family=Dancing+Script&quot; style=&quot;font-size: 36px&quot; face=&quot;Dancing Script&quot;&gt;&lt;font style=&quot;font-size: 36px&quot;&gt;&lt;b&gt;&lt;font data-font-src=&quot;https://fonts.googleapis.com/css?family=Dancing+Script&quot; style=&quot;font-size: 36px&quot; face=&quot;Dancing Script&quot;&gt;G&lt;sup&gt;3&lt;/sup&gt;&lt;/font&gt;&lt;/b&gt;&lt;/font&gt;&lt;/font&gt;&lt;/b&gt;&lt;/font&gt;&lt;/font&gt;&lt;/b&gt;&lt;/font&gt;&lt;font style=&quot;font-size: 36px&quot;&gt;&lt;b&gt;&lt;font data-font-src=&quot;https://fonts.googleapis.com/css?family=Dancing+Script&quot; style=&quot;font-size: 36px&quot; face=&quot;Dancing Script&quot;&gt;&lt;font style=&quot;font-size: 36px&quot;&gt;&lt;b&gt;&lt;font data-font-src=&quot;https://fonts.googleapis.com/css?family=Dancing+Script&quot; style=&quot;font-size: 36px&quot; face=&quot;Dancing Script&quot;&gt;&lt;font style=&quot;font-size: 36px&quot;&gt;&lt;b&gt;&lt;font data-font-src=&quot;https://fonts.googleapis.com/css?family=Dancing+Script&quot; style=&quot;font-size: 36px&quot; face=&quot;Dancing Script&quot;&gt;&lt;font style=&quot;font-size: 36px&quot;&gt;&lt;b&gt;&lt;font data-font-src=&quot;https://fonts.googleapis.com/css?family=Dancing+Script&quot; style=&quot;font-size: 36px&quot; face=&quot;Dancing Script&quot;&gt;&lt;font style=&quot;font-size: 36px&quot; face=&quot;Times New Roman&quot;&gt;,&lt;/font&gt;&lt;/font&gt;&lt;/b&gt;&lt;/font&gt;...............&lt;/font&gt;&lt;/b&gt;&lt;/font&gt;&lt;/font&gt;&lt;/b&gt;&lt;/font&gt;&lt;/font&gt;&lt;/b&gt;&lt;/font&gt;&lt;font style=&quot;font-size: 36px&quot;&gt;&lt;b&gt;&lt;font data-font-src=&quot;https://fonts.googleapis.com/css?family=Dancing+Script&quot; style=&quot;font-size: 36px&quot; face=&quot;Dancing Script&quot;&gt;&lt;font style=&quot;font-size: 36px&quot;&gt;&lt;b&gt;&lt;font data-font-src=&quot;https://fonts.googleapis.com/css?family=Dancing+Script&quot; style=&quot;font-size: 36px&quot; face=&quot;Dancing Script&quot;&gt;&lt;font style=&quot;font-size: 36px&quot; face=&quot;Times New Roman&quot;&gt;, &lt;/font&gt;&lt;/font&gt;&lt;/b&gt;&lt;/font&gt;G&lt;sup&gt;M&lt;/sup&gt; &lt;br&gt;&lt;/font&gt;&lt;/b&gt;&lt;/font&gt;" style="text;html=1;strokeColor=none;fillColor=none;align=center;verticalAlign=middle;whiteSpace=wrap;rounded=0;" vertex="1" parent="1">
          <mxGeometry x="1782.5" y="261.25" width="460" height="58.75" as="geometry" />
        </mxCell>
        <mxCell id="EXkiIg57ss1Epixbn9bt-59" style="edgeStyle=orthogonalEdgeStyle;rounded=0;orthogonalLoop=1;jettySize=auto;html=1;entryX=0.1;entryY=0.5;entryDx=0;entryDy=0;entryPerimeter=0;" edge="1" parent="1" source="EXkiIg57ss1Epixbn9bt-60" target="EXkiIg57ss1Epixbn9bt-64">
          <mxGeometry relative="1" as="geometry" />
        </mxCell>
        <mxCell id="EXkiIg57ss1Epixbn9bt-60" value="&lt;font style=&quot;font-size: 31px&quot;&gt;Eigendecomposition&lt;/font&gt;" style="rounded=0;whiteSpace=wrap;html=1;" vertex="1" parent="1">
          <mxGeometry x="1845.5" y="365" width="340" height="60" as="geometry" />
        </mxCell>
        <mxCell id="EXkiIg57ss1Epixbn9bt-61" style="edgeStyle=orthogonalEdgeStyle;rounded=0;orthogonalLoop=1;jettySize=auto;html=1;entryX=0.5;entryY=0;entryDx=0;entryDy=0;" edge="1" parent="1" source="EXkiIg57ss1Epixbn9bt-62" target="EXkiIg57ss1Epixbn9bt-60">
          <mxGeometry relative="1" as="geometry" />
        </mxCell>
        <mxCell id="EXkiIg57ss1Epixbn9bt-62" value="" style="shape=curlyBracket;whiteSpace=wrap;html=1;rounded=1;rotation=-90;" vertex="1" parent="1">
          <mxGeometry x="2010.5" y="140" width="10" height="360" as="geometry" />
        </mxCell>
        <mxCell id="EXkiIg57ss1Epixbn9bt-63" value="&lt;font style=&quot;font-size: 36px&quot;&gt;&lt;br&gt;&lt;i&gt;&lt;font style=&quot;font-size: 36px&quot;&gt;U&lt;sub&gt;1&lt;/sub&gt;,&lt;/font&gt;&lt;font style=&quot;font-size: 36px&quot;&gt; U&lt;sub&gt;2&lt;/sub&gt;,............, U&lt;sub&gt;M&lt;/sub&gt;&lt;br&gt;&lt;/font&gt;&lt;/i&gt;&lt;/font&gt;" style="text;html=1;strokeColor=#2D7600;fillColor=#60a917;align=center;verticalAlign=middle;whiteSpace=wrap;rounded=0;fontColor=#ffffff;" vertex="1" parent="1">
          <mxGeometry x="1825.5" y="516.25" width="380" height="93.75" as="geometry" />
        </mxCell>
        <mxCell id="EXkiIg57ss1Epixbn9bt-64" value="" style="shape=curlyBracket;whiteSpace=wrap;html=1;rounded=1;rotation=90;" vertex="1" parent="1">
          <mxGeometry x="2010.5" y="300" width="10" height="360" as="geometry" />
        </mxCell>
        <mxCell id="EXkiIg57ss1Epixbn9bt-65" value="&lt;font style=&quot;font-size: 35px&quot;&gt;EVD of &lt;/font&gt;&lt;font style=&quot;font-size: 35px&quot;&gt;&lt;font style=&quot;font-size: 25px&quot;&gt;&lt;b style=&quot;font-size: 35px&quot;&gt;&lt;font data-font-src=&quot;https://fonts.googleapis.com/css?family=Dancing+Script&quot; style=&quot;font-size: 35px&quot; face=&quot;Dancing Script&quot;&gt;G&lt;/font&gt;&lt;/b&gt;&lt;/font&gt; matrices to get a matrix with k largest eigenvectors of &lt;/font&gt;&lt;font style=&quot;font-size: 35px&quot;&gt;&lt;font style=&quot;font-size: 25px&quot;&gt;&lt;b style=&quot;font-size: 35px&quot;&gt;&lt;font data-font-src=&quot;https://fonts.googleapis.com/css?family=Dancing+Script&quot; style=&quot;font-size: 35px&quot; face=&quot;Dancing Script&quot;&gt;G&lt;/font&gt;&lt;/b&gt;&lt;/font&gt; in its columns&lt;/font&gt;." style="text;html=1;strokeColor=none;fillColor=none;align=center;verticalAlign=middle;whiteSpace=wrap;rounded=0;" vertex="1" parent="1">
          <mxGeometry x="1650" y="156.25" width="725" height="85" as="geometry" />
        </mxCell>
        <mxCell id="EXkiIg57ss1Epixbn9bt-95" style="edgeStyle=orthogonalEdgeStyle;rounded=0;orthogonalLoop=1;jettySize=auto;html=1;entryX=0.5;entryY=0;entryDx=0;entryDy=0;" edge="1" parent="1" source="EXkiIg57ss1Epixbn9bt-96" target="EXkiIg57ss1Epixbn9bt-100">
          <mxGeometry relative="1" as="geometry">
            <Array as="points">
              <mxPoint x="1333" y="1085" />
              <mxPoint x="1367" y="1085" />
            </Array>
          </mxGeometry>
        </mxCell>
        <mxCell id="EXkiIg57ss1Epixbn9bt-96" value="&lt;font style=&quot;font-size: 30px&quot;&gt;Method 3: Weighted Sum of &lt;i&gt;U&lt;/i&gt;&amp;nbsp;&lt;font style=&quot;font-size: 30px&quot;&gt;&lt;b&gt;&lt;font data-font-src=&quot;https://fonts.googleapis.com/css?family=Dancing+Script&quot; style=&quot;font-size: 30px&quot; face=&quot;Dancing Script&quot;&gt; &lt;br&gt;&lt;/font&gt;&lt;/b&gt;&lt;/font&gt;&lt;/font&gt;" style="rounded=0;whiteSpace=wrap;html=1;fillColor=#1ba1e2;strokeColor=#006EAF;fontColor=#ffffff;" vertex="1" parent="1">
          <mxGeometry x="1104.5" y="935" width="456" height="90" as="geometry" />
        </mxCell>
        <mxCell id="EXkiIg57ss1Epixbn9bt-97" style="edgeStyle=orthogonalEdgeStyle;rounded=0;orthogonalLoop=1;jettySize=auto;html=1;" edge="1" parent="1" source="EXkiIg57ss1Epixbn9bt-98" target="EXkiIg57ss1Epixbn9bt-131">
          <mxGeometry relative="1" as="geometry">
            <Array as="points">
              <mxPoint x="1356" y="2220" />
            </Array>
          </mxGeometry>
        </mxCell>
        <mxCell id="EXkiIg57ss1Epixbn9bt-98" value="" style="rounded=0;whiteSpace=wrap;html=1;" vertex="1" parent="1">
          <mxGeometry x="1058" y="1135" width="596" height="420" as="geometry" />
        </mxCell>
        <mxCell id="EXkiIg57ss1Epixbn9bt-99" value="&lt;font style=&quot;font-size: 40px&quot;&gt;&lt;b&gt;&lt;font data-font-src=&quot;https://fonts.googleapis.com/css?family=Dancing+Script&quot; style=&quot;font-size: 40px&quot; face=&quot;Dancing Script&quot;&gt;&lt;font face=&quot;Helvetica&quot;&gt;(&lt;/font&gt;&lt;/font&gt;&lt;/b&gt;&lt;font data-font-src=&quot;https://fonts.googleapis.com/css?family=Dancing+Script&quot; style=&quot;font-size: 40px&quot; face=&quot;Dancing Script&quot;&gt;&lt;font face=&quot;Helvetica&quot;&gt;&lt;i&gt;U&lt;sub&gt;1&lt;/sub&gt;&lt;/i&gt;&lt;/font&gt;&lt;/font&gt;&lt;/font&gt;&lt;font style=&quot;font-size: 40px&quot;&gt;&lt;b&gt;&lt;font data-font-src=&quot;https://fonts.googleapis.com/css?family=Dancing+Script&quot; style=&quot;font-size: 41px&quot; face=&quot;Dancing Script&quot;&gt;&lt;font face=&quot;Helvetica&quot;&gt;)&lt;sup&gt;1&lt;/sup&gt;&lt;/font&gt;&lt;/font&gt;&lt;font data-font-src=&quot;https://fonts.googleapis.com/css?family=Dancing+Script&quot; style=&quot;font-size: 41px&quot; size=&quot;1&quot;&gt;&lt;font style=&quot;font-size: 40px&quot;&gt; +&lt;/font&gt;&lt;/font&gt;&lt;font data-font-src=&quot;https://fonts.googleapis.com/css?family=Dancing+Script&quot; style=&quot;font-size: 41px&quot; face=&quot;Dancing Script&quot;&gt; &lt;/font&gt;&lt;/b&gt;&lt;/font&gt;&lt;font style=&quot;font-size: 40px&quot;&gt;&lt;b&gt;&lt;font data-font-src=&quot;https://fonts.googleapis.com/css?family=Dancing+Script&quot; style=&quot;font-size: 40px&quot; face=&quot;Dancing Script&quot;&gt;&lt;font style=&quot;font-size: 40px&quot;&gt;&lt;b&gt;&lt;font data-font-src=&quot;https://fonts.googleapis.com/css?family=Dancing+Script&quot; style=&quot;font-size: 40px&quot; face=&quot;Dancing Script&quot;&gt;&lt;font face=&quot;Helvetica&quot;&gt;(&lt;/font&gt;&lt;/font&gt;&lt;/b&gt;&lt;/font&gt;&lt;/font&gt;&lt;/b&gt;&lt;i&gt;&lt;font data-font-src=&quot;https://fonts.googleapis.com/css?family=Dancing+Script&quot; style=&quot;font-size: 40px&quot; face=&quot;Dancing Script&quot;&gt;&lt;font style=&quot;font-size: 40px&quot;&gt;&lt;font data-font-src=&quot;https://fonts.googleapis.com/css?family=Dancing+Script&quot; style=&quot;font-size: 40px&quot; face=&quot;Dancing Script&quot;&gt;&lt;font face=&quot;Helvetica&quot;&gt;U&lt;sub&gt;2&lt;/sub&gt;&lt;/font&gt;&lt;/font&gt;&lt;/font&gt;&lt;/font&gt;&lt;/i&gt;&lt;b&gt;&lt;font data-font-src=&quot;https://fonts.googleapis.com/css?family=Dancing+Script&quot; style=&quot;font-size: 40px&quot; face=&quot;Dancing Script&quot;&gt;&lt;font style=&quot;font-size: 40px&quot;&gt;&lt;b&gt;&lt;font data-font-src=&quot;https://fonts.googleapis.com/css?family=Dancing+Script&quot; style=&quot;font-size: 40px&quot; face=&quot;Dancing Script&quot;&gt;&lt;font face=&quot;Helvetica&quot;&gt;)&lt;/font&gt;&lt;/font&gt;&lt;/b&gt;&lt;/font&gt;&lt;/font&gt;&lt;/b&gt;&lt;/font&gt;&lt;font style=&quot;font-size: 40px&quot;&gt;&lt;b&gt;&lt;font data-font-src=&quot;https://fonts.googleapis.com/css?family=Dancing+Script&quot; style=&quot;font-size: 40px&quot; face=&quot;Dancing Script&quot;&gt;&lt;font style=&quot;font-size: 40px&quot;&gt;&lt;b&gt;&lt;font data-font-src=&quot;https://fonts.googleapis.com/css?family=Dancing+Script&quot; style=&quot;font-size: 40px&quot; face=&quot;Dancing Script&quot;&gt;&lt;font style=&quot;font-size: 40px&quot; face=&quot;Helvetica&quot;&gt;&lt;b&gt;&lt;font data-font-src=&quot;https://fonts.googleapis.com/css?family=Dancing+Script&quot; style=&quot;font-size: 40px&quot;&gt;&lt;font style=&quot;font-size: 40px&quot;&gt;&lt;sup&gt;2&lt;/sup&gt;&lt;/font&gt;&lt;/font&gt;&lt;/b&gt;&lt;/font&gt;&lt;/font&gt;&lt;/b&gt;&lt;/font&gt;&lt;/font&gt;&lt;font data-font-src=&quot;https://fonts.googleapis.com/css?family=Dancing+Script&quot; style=&quot;font-size: 40px&quot;&gt;&lt;font style=&quot;font-size: 40px&quot;&gt;&lt;font data-font-src=&quot;https://fonts.googleapis.com/css?family=Dancing+Script&quot; style=&quot;font-size: 40px&quot;&gt; +&lt;/font&gt;&lt;/font&gt;&lt;/font&gt;&lt;font data-font-src=&quot;https://fonts.googleapis.com/css?family=Dancing+Script&quot; style=&quot;font-size: 40px&quot; face=&quot;Dancing Script&quot;&gt;&lt;font style=&quot;font-size: 40px&quot;&gt;&lt;b&gt;&lt;font data-font-src=&quot;https://fonts.googleapis.com/css?family=Dancing+Script&quot; style=&quot;font-size: 40px&quot; face=&quot;Dancing Script&quot;&gt;&lt;sub&gt; &lt;/sub&gt;&lt;/font&gt;&lt;/b&gt;&lt;/font&gt;&lt;/font&gt;&lt;/b&gt;&lt;/font&gt;&lt;font style=&quot;font-size: 40px&quot;&gt;&lt;b&gt;&lt;font data-font-src=&quot;https://fonts.googleapis.com/css?family=Dancing+Script&quot; style=&quot;font-size: 40px&quot; face=&quot;Dancing Script&quot;&gt;&lt;font style=&quot;font-size: 40px&quot;&gt;&lt;b&gt;&lt;font data-font-src=&quot;https://fonts.googleapis.com/css?family=Dancing+Script&quot; style=&quot;font-size: 40px&quot; face=&quot;Dancing Script&quot;&gt;&lt;font style=&quot;font-size: 40px&quot;&gt;&lt;b&gt;&lt;font data-font-src=&quot;https://fonts.googleapis.com/css?family=Dancing+Script&quot; style=&quot;font-size: 40px&quot; face=&quot;Dancing Script&quot;&gt;.........&lt;/font&gt;&lt;/b&gt;&lt;/font&gt;&lt;/font&gt;&lt;/b&gt;&lt;/font&gt;&lt;/font&gt;&lt;/b&gt;&lt;/font&gt;&lt;font style=&quot;font-size: 40px&quot;&gt;&lt;b&gt;&lt;font data-font-src=&quot;https://fonts.googleapis.com/css?family=Dancing+Script&quot; style=&quot;font-size: 40px&quot; face=&quot;Dancing Script&quot;&gt;&lt;font style=&quot;font-size: 40px&quot;&gt;&lt;b&gt;&lt;font data-font-src=&quot;https://fonts.googleapis.com/css?family=Dancing+Script&quot; style=&quot;font-size: 40px&quot; face=&quot;Dancing Script&quot;&gt;&lt;font style=&quot;font-size: 40px&quot; face=&quot;Times New Roman&quot;&gt; &lt;/font&gt;&lt;/font&gt;&lt;/b&gt;&lt;/font&gt;&lt;/font&gt;&lt;font data-font-src=&quot;https://fonts.googleapis.com/css?family=Dancing+Script&quot; style=&quot;font-size: 40px&quot;&gt;&lt;font style=&quot;font-size: 40px&quot;&gt;&lt;font data-font-src=&quot;https://fonts.googleapis.com/css?family=Dancing+Script&quot; style=&quot;font-size: 40px&quot;&gt;&lt;font style=&quot;font-size: 40px&quot;&gt;+&lt;/font&gt;&lt;/font&gt;&lt;/font&gt;&lt;/font&gt;&lt;font data-font-src=&quot;https://fonts.googleapis.com/css?family=Dancing+Script&quot; style=&quot;font-size: 40px&quot; face=&quot;Dancing Script&quot;&gt;&lt;font style=&quot;font-size: 40px&quot;&gt;&lt;b&gt;&lt;font data-font-src=&quot;https://fonts.googleapis.com/css?family=Dancing+Script&quot; style=&quot;font-size: 40px&quot; face=&quot;Dancing Script&quot;&gt;&lt;font style=&quot;font-size: 40px&quot; face=&quot;Times New Roman&quot;&gt; &lt;/font&gt;&lt;/font&gt;&lt;/b&gt;&lt;/font&gt;&lt;font face=&quot;Helvetica&quot;&gt;(&lt;/font&gt;&lt;/font&gt;&lt;/b&gt;&lt;font data-font-src=&quot;https://fonts.googleapis.com/css?family=Dancing+Script&quot; style=&quot;font-size: 40px&quot; face=&quot;Dancing Script&quot;&gt;&lt;font face=&quot;Helvetica&quot;&gt;&lt;i&gt;U&lt;sub&gt;M&lt;/sub&gt;&lt;/i&gt;&lt;/font&gt;&lt;/font&gt;&lt;b&gt;&lt;font data-font-src=&quot;https://fonts.googleapis.com/css?family=Dancing+Script&quot; style=&quot;font-size: 40px&quot; face=&quot;Dancing Script&quot;&gt;&lt;font face=&quot;Helvetica&quot;&gt;)&lt;sup&gt;M&lt;/sup&gt;&lt;/font&gt; &lt;/font&gt;&lt;/b&gt;&lt;/font&gt;" style="text;html=1;strokeColor=none;fillColor=none;align=center;verticalAlign=middle;whiteSpace=wrap;rounded=0;" vertex="1" parent="1">
          <mxGeometry x="1071" y="1215" width="577" height="80" as="geometry" />
        </mxCell>
        <mxCell id="EXkiIg57ss1Epixbn9bt-100" value="&lt;font style=&quot;font-size: 35px&quot;&gt;Add all &lt;i&gt;U&lt;sub&gt;m&lt;/sub&gt;&lt;/i&gt; &lt;/font&gt;&lt;font face=&quot;Dancing Script&quot;&gt;&lt;b&gt;&amp;nbsp;&lt;/b&gt;&lt;/font&gt;&lt;font style=&quot;font-size: 35px&quot;&gt;&lt;b&gt;&lt;font data-font-src=&quot;https://fonts.googleapis.com/css?family=Dancing+Script&quot; style=&quot;font-size: 35px&quot; face=&quot;Dancing Script&quot;&gt; &lt;/font&gt;&lt;/b&gt;&lt;font data-font-src=&quot;https://fonts.googleapis.com/css?family=Dancing+Script&quot; style=&quot;font-size: 35px&quot; face=&quot;Dancing Script&quot;&gt;&lt;font style=&quot;font-size: 35px&quot; face=&quot;Helvetica&quot;&gt;matrices as following&lt;/font&gt;&lt;/font&gt;&lt;/font&gt;" style="text;html=1;strokeColor=none;fillColor=none;align=center;verticalAlign=middle;whiteSpace=wrap;rounded=0;" vertex="1" parent="1">
          <mxGeometry x="1084" y="1135" width="565" height="60" as="geometry" />
        </mxCell>
        <mxCell id="EXkiIg57ss1Epixbn9bt-101" style="edgeStyle=orthogonalEdgeStyle;rounded=0;orthogonalLoop=1;jettySize=auto;html=1;" edge="1" parent="1" source="EXkiIg57ss1Epixbn9bt-102" target="EXkiIg57ss1Epixbn9bt-103">
          <mxGeometry relative="1" as="geometry">
            <Array as="points">
              <mxPoint x="1358" y="1355" />
              <mxPoint x="1358" y="1355" />
            </Array>
          </mxGeometry>
        </mxCell>
        <mxCell id="EXkiIg57ss1Epixbn9bt-102" value="" style="shape=curlyBracket;whiteSpace=wrap;html=1;rounded=1;rotation=-90;" vertex="1" parent="1">
          <mxGeometry x="1346" y="1055" width="20" height="480" as="geometry" />
        </mxCell>
        <mxCell id="EXkiIg57ss1Epixbn9bt-103" value="&lt;br&gt;&lt;b&gt;&lt;font style=&quot;font-size: 40px&quot;&gt;U&lt;/font&gt;&lt;/b&gt;" style="rounded=0;whiteSpace=wrap;html=1;fillColor=#60a917;strokeColor=#2D7600;fontColor=#ffffff;" vertex="1" parent="1">
          <mxGeometry x="1298" y="1465" width="120" height="70" as="geometry" />
        </mxCell>
        <mxCell id="EXkiIg57ss1Epixbn9bt-104" style="edgeStyle=orthogonalEdgeStyle;rounded=0;orthogonalLoop=1;jettySize=auto;html=1;" edge="1" parent="1" source="EXkiIg57ss1Epixbn9bt-105" target="EXkiIg57ss1Epixbn9bt-109">
          <mxGeometry relative="1" as="geometry" />
        </mxCell>
        <mxCell id="EXkiIg57ss1Epixbn9bt-105" value="&lt;font style=&quot;font-size: 30px&quot;&gt;Method 4: Unweighted Sum of &lt;i&gt;U&lt;/i&gt;&amp;nbsp;&lt;font style=&quot;font-size: 30px&quot;&gt;&lt;b&gt;&lt;font data-font-src=&quot;https://fonts.googleapis.com/css?family=Dancing+Script&quot; style=&quot;font-size: 30px&quot; face=&quot;Dancing Script&quot;&gt; &lt;br&gt;&lt;/font&gt;&lt;/b&gt;&lt;/font&gt;&lt;/font&gt;" style="rounded=0;whiteSpace=wrap;html=1;fillColor=#1ba1e2;strokeColor=#006EAF;fontColor=#ffffff;" vertex="1" parent="1">
          <mxGeometry x="1790" y="932.5" width="456" height="90" as="geometry" />
        </mxCell>
        <mxCell id="EXkiIg57ss1Epixbn9bt-106" style="edgeStyle=orthogonalEdgeStyle;rounded=0;orthogonalLoop=1;jettySize=auto;html=1;" edge="1" parent="1" source="EXkiIg57ss1Epixbn9bt-107" target="EXkiIg57ss1Epixbn9bt-131">
          <mxGeometry relative="1" as="geometry">
            <Array as="points">
              <mxPoint x="1998" y="2130" />
            </Array>
          </mxGeometry>
        </mxCell>
        <mxCell id="EXkiIg57ss1Epixbn9bt-107" value="" style="rounded=0;whiteSpace=wrap;html=1;" vertex="1" parent="1">
          <mxGeometry x="1700" y="1137.5" width="596" height="420" as="geometry" />
        </mxCell>
        <mxCell id="EXkiIg57ss1Epixbn9bt-108" value="&lt;font style=&quot;font-size: 40px&quot;&gt;&lt;font data-font-src=&quot;https://fonts.googleapis.com/css?family=Dancing+Script&quot; style=&quot;font-size: 40px&quot; face=&quot;Dancing Script&quot;&gt;&lt;font face=&quot;Helvetica&quot;&gt;&lt;i&gt;U&lt;sub&gt;1&lt;/sub&gt;&lt;/i&gt;&lt;/font&gt;&lt;/font&gt;&lt;/font&gt;&lt;font style=&quot;font-size: 40px&quot;&gt;&lt;b&gt;&lt;font data-font-src=&quot;https://fonts.googleapis.com/css?family=Dancing+Script&quot; style=&quot;font-size: 41px&quot; size=&quot;1&quot;&gt;&lt;font style=&quot;font-size: 40px&quot;&gt; +&lt;/font&gt;&lt;/font&gt;&lt;font data-font-src=&quot;https://fonts.googleapis.com/css?family=Dancing+Script&quot; style=&quot;font-size: 41px&quot; face=&quot;Dancing Script&quot;&gt; &lt;/font&gt;&lt;/b&gt;&lt;/font&gt;&lt;font style=&quot;font-size: 40px&quot;&gt;&lt;i&gt;&lt;font data-font-src=&quot;https://fonts.googleapis.com/css?family=Dancing+Script&quot; style=&quot;font-size: 40px&quot; face=&quot;Dancing Script&quot;&gt;&lt;font style=&quot;font-size: 40px&quot;&gt;&lt;font data-font-src=&quot;https://fonts.googleapis.com/css?family=Dancing+Script&quot; style=&quot;font-size: 40px&quot; face=&quot;Dancing Script&quot;&gt;&lt;font face=&quot;Helvetica&quot;&gt;U&lt;sub&gt;2&lt;/sub&gt;&lt;/font&gt;&lt;/font&gt;&lt;/font&gt;&lt;/font&gt;&lt;/i&gt;&lt;/font&gt;&lt;font style=&quot;font-size: 40px&quot;&gt;&lt;b&gt;&lt;font data-font-src=&quot;https://fonts.googleapis.com/css?family=Dancing+Script&quot; style=&quot;font-size: 40px&quot;&gt;&lt;font style=&quot;font-size: 40px&quot;&gt;&lt;font data-font-src=&quot;https://fonts.googleapis.com/css?family=Dancing+Script&quot; style=&quot;font-size: 40px&quot;&gt; +&lt;/font&gt;&lt;/font&gt;&lt;/font&gt;&lt;font data-font-src=&quot;https://fonts.googleapis.com/css?family=Dancing+Script&quot; style=&quot;font-size: 40px&quot; face=&quot;Dancing Script&quot;&gt;&lt;font style=&quot;font-size: 40px&quot;&gt;&lt;b&gt;&lt;font data-font-src=&quot;https://fonts.googleapis.com/css?family=Dancing+Script&quot; style=&quot;font-size: 40px&quot; face=&quot;Dancing Script&quot;&gt;&lt;sub&gt; &lt;/sub&gt;&lt;/font&gt;&lt;/b&gt;&lt;/font&gt;&lt;/font&gt;&lt;/b&gt;&lt;/font&gt;&lt;font style=&quot;font-size: 40px&quot;&gt;&lt;b&gt;&lt;font data-font-src=&quot;https://fonts.googleapis.com/css?family=Dancing+Script&quot; style=&quot;font-size: 40px&quot; face=&quot;Dancing Script&quot;&gt;&lt;font style=&quot;font-size: 40px&quot;&gt;&lt;b&gt;&lt;font data-font-src=&quot;https://fonts.googleapis.com/css?family=Dancing+Script&quot; style=&quot;font-size: 40px&quot; face=&quot;Dancing Script&quot;&gt;&lt;font style=&quot;font-size: 40px&quot;&gt;&lt;b&gt;&lt;font data-font-src=&quot;https://fonts.googleapis.com/css?family=Dancing+Script&quot; style=&quot;font-size: 40px&quot; face=&quot;Dancing Script&quot;&gt;.........&lt;/font&gt;&lt;/b&gt;&lt;/font&gt;&lt;/font&gt;&lt;/b&gt;&lt;/font&gt;&lt;/font&gt;&lt;/b&gt;&lt;/font&gt;&lt;font style=&quot;font-size: 40px&quot;&gt;&lt;b&gt;&lt;font data-font-src=&quot;https://fonts.googleapis.com/css?family=Dancing+Script&quot; style=&quot;font-size: 40px&quot; face=&quot;Dancing Script&quot;&gt;&lt;font style=&quot;font-size: 40px&quot;&gt;&lt;b&gt;&lt;font data-font-src=&quot;https://fonts.googleapis.com/css?family=Dancing+Script&quot; style=&quot;font-size: 40px&quot; face=&quot;Dancing Script&quot;&gt;&lt;font style=&quot;font-size: 40px&quot; face=&quot;Times New Roman&quot;&gt; &lt;/font&gt;&lt;/font&gt;&lt;/b&gt;&lt;/font&gt;&lt;/font&gt;&lt;font data-font-src=&quot;https://fonts.googleapis.com/css?family=Dancing+Script&quot; style=&quot;font-size: 40px&quot;&gt;&lt;font style=&quot;font-size: 40px&quot;&gt;&lt;font data-font-src=&quot;https://fonts.googleapis.com/css?family=Dancing+Script&quot; style=&quot;font-size: 40px&quot;&gt;&lt;font style=&quot;font-size: 40px&quot;&gt;+&lt;/font&gt;&lt;/font&gt;&lt;/font&gt;&lt;/font&gt;&lt;font data-font-src=&quot;https://fonts.googleapis.com/css?family=Dancing+Script&quot; style=&quot;font-size: 40px&quot; face=&quot;Dancing Script&quot;&gt;&lt;font style=&quot;font-size: 40px&quot;&gt;&lt;b&gt;&lt;font data-font-src=&quot;https://fonts.googleapis.com/css?family=Dancing+Script&quot; style=&quot;font-size: 40px&quot; face=&quot;Dancing Script&quot;&gt;&lt;font style=&quot;font-size: 40px&quot; face=&quot;Times New Roman&quot;&gt; &lt;/font&gt;&lt;/font&gt;&lt;/b&gt;&lt;/font&gt;&lt;/font&gt;&lt;/b&gt;&lt;font data-font-src=&quot;https://fonts.googleapis.com/css?family=Dancing+Script&quot; style=&quot;font-size: 40px&quot; face=&quot;Dancing Script&quot;&gt;&lt;font face=&quot;Helvetica&quot;&gt;&lt;i&gt;U&lt;sub&gt;M&lt;/sub&gt;&lt;/i&gt;&lt;/font&gt;&lt;/font&gt;&lt;b&gt;&lt;font data-font-src=&quot;https://fonts.googleapis.com/css?family=Dancing+Script&quot; style=&quot;font-size: 40px&quot; face=&quot;Dancing Script&quot;&gt; &lt;/font&gt;&lt;/b&gt;&lt;/font&gt;" style="text;html=1;strokeColor=none;fillColor=none;align=center;verticalAlign=middle;whiteSpace=wrap;rounded=0;" vertex="1" parent="1">
          <mxGeometry x="1713" y="1217.5" width="577" height="80" as="geometry" />
        </mxCell>
        <mxCell id="EXkiIg57ss1Epixbn9bt-109" value="&lt;font style=&quot;font-size: 35px&quot;&gt;Add all &lt;i&gt;U&lt;sub&gt;m&lt;/sub&gt;&lt;/i&gt; &lt;/font&gt;&lt;font face=&quot;Dancing Script&quot;&gt;&lt;b&gt;&amp;nbsp;&lt;/b&gt;&lt;/font&gt;&lt;font style=&quot;font-size: 35px&quot;&gt;&lt;b&gt;&lt;font data-font-src=&quot;https://fonts.googleapis.com/css?family=Dancing+Script&quot; style=&quot;font-size: 35px&quot; face=&quot;Dancing Script&quot;&gt; &lt;/font&gt;&lt;/b&gt;&lt;font data-font-src=&quot;https://fonts.googleapis.com/css?family=Dancing+Script&quot; style=&quot;font-size: 35px&quot; face=&quot;Dancing Script&quot;&gt;&lt;font style=&quot;font-size: 35px&quot; face=&quot;Helvetica&quot;&gt;matrices as following&lt;/font&gt;&lt;/font&gt;&lt;/font&gt;" style="text;html=1;strokeColor=none;fillColor=none;align=center;verticalAlign=middle;whiteSpace=wrap;rounded=0;" vertex="1" parent="1">
          <mxGeometry x="1726" y="1137.5" width="565" height="60" as="geometry" />
        </mxCell>
        <mxCell id="EXkiIg57ss1Epixbn9bt-110" style="edgeStyle=orthogonalEdgeStyle;rounded=0;orthogonalLoop=1;jettySize=auto;html=1;" edge="1" parent="1" source="EXkiIg57ss1Epixbn9bt-111" target="EXkiIg57ss1Epixbn9bt-112">
          <mxGeometry relative="1" as="geometry">
            <Array as="points">
              <mxPoint x="2000" y="1357.5" />
              <mxPoint x="2000" y="1357.5" />
            </Array>
          </mxGeometry>
        </mxCell>
        <mxCell id="EXkiIg57ss1Epixbn9bt-111" value="" style="shape=curlyBracket;whiteSpace=wrap;html=1;rounded=1;rotation=-90;" vertex="1" parent="1">
          <mxGeometry x="1988" y="1057.5" width="20" height="480" as="geometry" />
        </mxCell>
        <mxCell id="EXkiIg57ss1Epixbn9bt-112" value="&lt;br&gt;&lt;b&gt;&lt;font style=&quot;font-size: 40px&quot;&gt;U&lt;/font&gt;&lt;/b&gt;" style="rounded=0;whiteSpace=wrap;html=1;fillColor=#60a917;strokeColor=#2D7600;fontColor=#ffffff;" vertex="1" parent="1">
          <mxGeometry x="1940" y="1467.5" width="120" height="70" as="geometry" />
        </mxCell>
        <mxCell id="EXkiIg57ss1Epixbn9bt-113" style="edgeStyle=orthogonalEdgeStyle;rounded=0;orthogonalLoop=1;jettySize=auto;html=1;" edge="1" parent="1" source="EXkiIg57ss1Epixbn9bt-114" target="EXkiIg57ss1Epixbn9bt-118">
          <mxGeometry relative="1" as="geometry" />
        </mxCell>
        <mxCell id="EXkiIg57ss1Epixbn9bt-114" value="&lt;font style=&quot;font-size: 30px&quot;&gt;Method 5: Unweighted Concatenation of &lt;i&gt;U&lt;/i&gt;&amp;nbsp;&lt;font style=&quot;font-size: 30px&quot;&gt;&lt;b&gt;&lt;font data-font-src=&quot;https://fonts.googleapis.com/css?family=Dancing+Script&quot; style=&quot;font-size: 30px&quot; face=&quot;Dancing Script&quot;&gt; &lt;br&gt;&lt;/font&gt;&lt;/b&gt;&lt;/font&gt;&lt;/font&gt;" style="rounded=0;whiteSpace=wrap;html=1;fillColor=#1ba1e2;strokeColor=#006EAF;fontColor=#ffffff;" vertex="1" parent="1">
          <mxGeometry x="2450" y="935" width="456" height="90" as="geometry" />
        </mxCell>
        <mxCell id="EXkiIg57ss1Epixbn9bt-115" style="edgeStyle=orthogonalEdgeStyle;rounded=0;orthogonalLoop=1;jettySize=auto;html=1;" edge="1" parent="1" source="EXkiIg57ss1Epixbn9bt-116" target="EXkiIg57ss1Epixbn9bt-131">
          <mxGeometry relative="1" as="geometry">
            <Array as="points">
              <mxPoint x="2673" y="2060" />
            </Array>
          </mxGeometry>
        </mxCell>
        <mxCell id="EXkiIg57ss1Epixbn9bt-116" value="" style="rounded=0;whiteSpace=wrap;html=1;" vertex="1" parent="1">
          <mxGeometry x="2375" y="1137.5" width="596" height="420" as="geometry" />
        </mxCell>
        <mxCell id="EXkiIg57ss1Epixbn9bt-117" value="&lt;font style=&quot;font-size: 40px&quot;&gt;&lt;font data-font-src=&quot;https://fonts.googleapis.com/css?family=Dancing+Script&quot; style=&quot;font-size: 40px&quot; face=&quot;Dancing Script&quot;&gt;&lt;font face=&quot;Helvetica&quot;&gt;&lt;b&gt;[&lt;/b&gt;&lt;i&gt; U&lt;sub&gt;1&lt;/sub&gt;&lt;/i&gt;&lt;/font&gt;&lt;/font&gt;&lt;/font&gt;&lt;font style=&quot;font-size: 40px&quot;&gt;&lt;b&gt;&lt;font data-font-src=&quot;https://fonts.googleapis.com/css?family=Dancing+Script&quot; style=&quot;font-size: 41px&quot; size=&quot;1&quot;&gt;&lt;font style=&quot;font-size: 40px&quot;&gt;&amp;nbsp;&lt;/font&gt;&lt;/font&gt;&lt;font data-font-src=&quot;https://fonts.googleapis.com/css?family=Dancing+Script&quot; style=&quot;font-size: 41px&quot; face=&quot;Dancing Script&quot;&gt; &lt;/font&gt;&lt;/b&gt;&lt;/font&gt;&lt;font style=&quot;font-size: 40px&quot;&gt;&lt;i&gt;&lt;font data-font-src=&quot;https://fonts.googleapis.com/css?family=Dancing+Script&quot; style=&quot;font-size: 40px&quot; face=&quot;Dancing Script&quot;&gt;&lt;font style=&quot;font-size: 40px&quot;&gt;&lt;font data-font-src=&quot;https://fonts.googleapis.com/css?family=Dancing+Script&quot; style=&quot;font-size: 40px&quot; face=&quot;Dancing Script&quot;&gt;&lt;font face=&quot;Helvetica&quot;&gt;U&lt;sub&gt;2&lt;/sub&gt;&lt;/font&gt;&lt;/font&gt;&lt;/font&gt;&lt;/font&gt;&lt;/i&gt;&lt;/font&gt;&lt;font style=&quot;font-size: 40px&quot;&gt;&lt;b&gt;&lt;font data-font-src=&quot;https://fonts.googleapis.com/css?family=Dancing+Script&quot; style=&quot;font-size: 40px&quot;&gt;&lt;font style=&quot;font-size: 40px&quot;&gt;&lt;font data-font-src=&quot;https://fonts.googleapis.com/css?family=Dancing+Script&quot; style=&quot;font-size: 40px&quot;&gt;&amp;nbsp;&lt;/font&gt;&lt;/font&gt;&lt;/font&gt;&lt;font data-font-src=&quot;https://fonts.googleapis.com/css?family=Dancing+Script&quot; style=&quot;font-size: 40px&quot; face=&quot;Dancing Script&quot;&gt;&lt;font style=&quot;font-size: 40px&quot;&gt;&lt;b&gt;&lt;font data-font-src=&quot;https://fonts.googleapis.com/css?family=Dancing+Script&quot; style=&quot;font-size: 40px&quot; face=&quot;Dancing Script&quot;&gt;&lt;sub&gt; &lt;/sub&gt;&lt;/font&gt;&lt;/b&gt;&lt;/font&gt;&lt;/font&gt;&lt;/b&gt;&lt;/font&gt;&lt;font style=&quot;font-size: 40px&quot;&gt;&lt;b&gt;&lt;font data-font-src=&quot;https://fonts.googleapis.com/css?family=Dancing+Script&quot; style=&quot;font-size: 40px&quot; face=&quot;Dancing Script&quot;&gt;&lt;font style=&quot;font-size: 40px&quot;&gt;&lt;b&gt;&lt;font data-font-src=&quot;https://fonts.googleapis.com/css?family=Dancing+Script&quot; style=&quot;font-size: 40px&quot; face=&quot;Dancing Script&quot;&gt;&lt;font style=&quot;font-size: 40px&quot;&gt;&lt;b&gt;&lt;font data-font-src=&quot;https://fonts.googleapis.com/css?family=Dancing+Script&quot; style=&quot;font-size: 40px&quot; face=&quot;Dancing Script&quot;&gt;.........&lt;/font&gt;&lt;/b&gt;&lt;/font&gt;&lt;/font&gt;&lt;/b&gt;&lt;/font&gt;&lt;/font&gt;&lt;/b&gt;&lt;/font&gt;&lt;font style=&quot;font-size: 40px&quot;&gt;&lt;b&gt;&lt;font data-font-src=&quot;https://fonts.googleapis.com/css?family=Dancing+Script&quot; style=&quot;font-size: 40px&quot; face=&quot;Dancing Script&quot;&gt;&lt;font style=&quot;font-size: 40px&quot;&gt;&lt;b&gt;&lt;font data-font-src=&quot;https://fonts.googleapis.com/css?family=Dancing+Script&quot; style=&quot;font-size: 40px&quot; face=&quot;Dancing Script&quot;&gt;&lt;font style=&quot;font-size: 40px&quot; face=&quot;Times New Roman&quot;&gt;&amp;nbsp;&lt;/font&gt;&lt;/font&gt;&lt;/b&gt;&lt;/font&gt;&lt;/font&gt;&lt;font data-font-src=&quot;https://fonts.googleapis.com/css?family=Dancing+Script&quot; style=&quot;font-size: 40px&quot; face=&quot;Dancing Script&quot;&gt;&lt;font style=&quot;font-size: 40px&quot;&gt;&lt;b&gt;&lt;font data-font-src=&quot;https://fonts.googleapis.com/css?family=Dancing+Script&quot; style=&quot;font-size: 40px&quot; face=&quot;Dancing Script&quot;&gt;&lt;font style=&quot;font-size: 40px&quot; face=&quot;Times New Roman&quot;&gt; &lt;/font&gt;&lt;/font&gt;&lt;/b&gt;&lt;/font&gt;&lt;/font&gt;&lt;/b&gt;&lt;font data-font-src=&quot;https://fonts.googleapis.com/css?family=Dancing+Script&quot; style=&quot;font-size: 40px&quot; face=&quot;Dancing Script&quot;&gt;&lt;font face=&quot;Helvetica&quot;&gt;&lt;i&gt;U&lt;sub&gt;M&lt;/sub&gt;&lt;/i&gt;&lt;/font&gt;&lt;/font&gt;&lt;b&gt;&lt;font data-font-src=&quot;https://fonts.googleapis.com/css?family=Dancing+Script&quot; style=&quot;font-size: 40px&quot;&gt; ]&lt;/font&gt;&lt;font data-font-src=&quot;https://fonts.googleapis.com/css?family=Dancing+Script&quot; style=&quot;font-size: 40px&quot; face=&quot;Dancing Script&quot;&gt; &lt;/font&gt;&lt;/b&gt;&lt;/font&gt;" style="text;html=1;strokeColor=none;fillColor=none;align=center;verticalAlign=middle;whiteSpace=wrap;rounded=0;" vertex="1" parent="1">
          <mxGeometry x="2388" y="1217.5" width="577" height="80" as="geometry" />
        </mxCell>
        <mxCell id="EXkiIg57ss1Epixbn9bt-118" value="&lt;font style=&quot;font-size: 35px&quot;&gt;Add all &lt;i&gt;U&lt;sub&gt;m&lt;/sub&gt;&lt;/i&gt; &lt;/font&gt;&lt;font face=&quot;Dancing Script&quot;&gt;&lt;b&gt;&amp;nbsp;&lt;/b&gt;&lt;/font&gt;&lt;font style=&quot;font-size: 35px&quot;&gt;&lt;b&gt;&lt;font data-font-src=&quot;https://fonts.googleapis.com/css?family=Dancing+Script&quot; style=&quot;font-size: 35px&quot; face=&quot;Dancing Script&quot;&gt; &lt;/font&gt;&lt;/b&gt;&lt;font data-font-src=&quot;https://fonts.googleapis.com/css?family=Dancing+Script&quot; style=&quot;font-size: 35px&quot; face=&quot;Dancing Script&quot;&gt;&lt;font style=&quot;font-size: 35px&quot; face=&quot;Helvetica&quot;&gt;matrices as following&lt;/font&gt;&lt;/font&gt;&lt;/font&gt;" style="text;html=1;strokeColor=none;fillColor=none;align=center;verticalAlign=middle;whiteSpace=wrap;rounded=0;" vertex="1" parent="1">
          <mxGeometry x="2401" y="1137.5" width="565" height="60" as="geometry" />
        </mxCell>
        <mxCell id="EXkiIg57ss1Epixbn9bt-119" style="edgeStyle=orthogonalEdgeStyle;rounded=0;orthogonalLoop=1;jettySize=auto;html=1;" edge="1" parent="1" source="EXkiIg57ss1Epixbn9bt-120" target="EXkiIg57ss1Epixbn9bt-121">
          <mxGeometry relative="1" as="geometry">
            <Array as="points">
              <mxPoint x="2675" y="1357.5" />
              <mxPoint x="2675" y="1357.5" />
            </Array>
          </mxGeometry>
        </mxCell>
        <mxCell id="EXkiIg57ss1Epixbn9bt-120" value="" style="shape=curlyBracket;whiteSpace=wrap;html=1;rounded=1;rotation=-90;" vertex="1" parent="1">
          <mxGeometry x="2663" y="1057.5" width="20" height="480" as="geometry" />
        </mxCell>
        <mxCell id="EXkiIg57ss1Epixbn9bt-121" value="&lt;br&gt;&lt;b&gt;&lt;font style=&quot;font-size: 40px&quot;&gt;U&lt;/font&gt;&lt;/b&gt;" style="rounded=0;whiteSpace=wrap;html=1;fillColor=#60a917;strokeColor=#2D7600;fontColor=#ffffff;" vertex="1" parent="1">
          <mxGeometry x="2615" y="1467.5" width="120" height="70" as="geometry" />
        </mxCell>
        <mxCell id="EXkiIg57ss1Epixbn9bt-122" style="edgeStyle=orthogonalEdgeStyle;rounded=0;orthogonalLoop=1;jettySize=auto;html=1;entryX=0.5;entryY=0;entryDx=0;entryDy=0;" edge="1" parent="1" source="EXkiIg57ss1Epixbn9bt-123" target="EXkiIg57ss1Epixbn9bt-125">
          <mxGeometry relative="1" as="geometry" />
        </mxCell>
        <mxCell id="EXkiIg57ss1Epixbn9bt-123" value="&lt;font style=&quot;font-size: 30px&quot;&gt;Method 6: Weighted Concatenation of &lt;i&gt;U&lt;/i&gt;&amp;nbsp;&lt;font style=&quot;font-size: 30px&quot;&gt;&lt;b&gt;&lt;font data-font-src=&quot;https://fonts.googleapis.com/css?family=Dancing+Script&quot; style=&quot;font-size: 30px&quot; face=&quot;Dancing Script&quot;&gt; &lt;br&gt;&lt;/font&gt;&lt;/b&gt;&lt;/font&gt;&lt;/font&gt;" style="rounded=0;whiteSpace=wrap;html=1;fillColor=#1ba1e2;strokeColor=#006EAF;fontColor=#ffffff;" vertex="1" parent="1">
          <mxGeometry x="3130" y="935" width="456" height="90" as="geometry" />
        </mxCell>
        <mxCell id="EXkiIg57ss1Epixbn9bt-124" style="edgeStyle=orthogonalEdgeStyle;rounded=0;orthogonalLoop=1;jettySize=auto;html=1;" edge="1" parent="1" source="EXkiIg57ss1Epixbn9bt-125" target="EXkiIg57ss1Epixbn9bt-131">
          <mxGeometry relative="1" as="geometry">
            <mxPoint x="3710" y="1810" as="targetPoint" />
            <Array as="points">
              <mxPoint x="3378" y="1710" />
              <mxPoint x="3730" y="1710" />
            </Array>
          </mxGeometry>
        </mxCell>
        <mxCell id="EXkiIg57ss1Epixbn9bt-125" value="" style="rounded=0;whiteSpace=wrap;html=1;" vertex="1" parent="1">
          <mxGeometry x="3080" y="1137.5" width="596" height="420" as="geometry" />
        </mxCell>
        <mxCell id="EXkiIg57ss1Epixbn9bt-126" value="&lt;font style=&quot;font-size: 40px&quot;&gt;&lt;b&gt;&lt;font data-font-src=&quot;https://fonts.googleapis.com/css?family=Dancing+Script&quot; style=&quot;font-size: 40px&quot; face=&quot;Dancing Script&quot;&gt;&lt;font face=&quot;Helvetica&quot;&gt;[ (&lt;/font&gt;&lt;/font&gt;&lt;/b&gt;&lt;/font&gt;&lt;font style=&quot;font-size: 40px&quot;&gt;&lt;font data-font-src=&quot;https://fonts.googleapis.com/css?family=Dancing+Script&quot; style=&quot;font-size: 40px&quot; face=&quot;Dancing Script&quot;&gt;&lt;font face=&quot;Helvetica&quot;&gt;&lt;i&gt;U&lt;sub&gt;1&lt;/sub&gt;&lt;/i&gt;&lt;/font&gt;&lt;/font&gt;&lt;/font&gt;&lt;font style=&quot;font-size: 40px&quot;&gt;&lt;b&gt;&lt;font data-font-src=&quot;https://fonts.googleapis.com/css?family=Dancing+Script&quot; style=&quot;font-size: 41px&quot; face=&quot;Dancing Script&quot;&gt;&lt;font face=&quot;Helvetica&quot;&gt;)&lt;sup&gt;1&lt;/sup&gt;&lt;/font&gt;&lt;/font&gt;&lt;font data-font-src=&quot;https://fonts.googleapis.com/css?family=Dancing+Script&quot; style=&quot;font-size: 41px&quot; size=&quot;1&quot;&gt;&lt;font style=&quot;font-size: 40px&quot;&gt;&amp;nbsp;&lt;/font&gt;&lt;/font&gt;&lt;font data-font-src=&quot;https://fonts.googleapis.com/css?family=Dancing+Script&quot; style=&quot;font-size: 41px&quot; face=&quot;Dancing Script&quot;&gt; &lt;/font&gt;&lt;/b&gt;&lt;/font&gt;&lt;font style=&quot;font-size: 40px&quot;&gt;&lt;b&gt;&lt;font data-font-src=&quot;https://fonts.googleapis.com/css?family=Dancing+Script&quot; style=&quot;font-size: 40px&quot; face=&quot;Dancing Script&quot;&gt;&lt;font style=&quot;font-size: 40px&quot;&gt;&lt;b&gt;&lt;font data-font-src=&quot;https://fonts.googleapis.com/css?family=Dancing+Script&quot; style=&quot;font-size: 40px&quot; face=&quot;Dancing Script&quot;&gt;&lt;font face=&quot;Helvetica&quot;&gt;(&lt;/font&gt;&lt;/font&gt;&lt;/b&gt;&lt;/font&gt;&lt;/font&gt;&lt;/b&gt;&lt;i&gt;&lt;font data-font-src=&quot;https://fonts.googleapis.com/css?family=Dancing+Script&quot; style=&quot;font-size: 40px&quot; face=&quot;Dancing Script&quot;&gt;&lt;font style=&quot;font-size: 40px&quot;&gt;&lt;font data-font-src=&quot;https://fonts.googleapis.com/css?family=Dancing+Script&quot; style=&quot;font-size: 40px&quot; face=&quot;Dancing Script&quot;&gt;&lt;font face=&quot;Helvetica&quot;&gt;U&lt;sub&gt;2&lt;/sub&gt;&lt;/font&gt;&lt;/font&gt;&lt;/font&gt;&lt;/font&gt;&lt;/i&gt;&lt;b&gt;&lt;font data-font-src=&quot;https://fonts.googleapis.com/css?family=Dancing+Script&quot; style=&quot;font-size: 40px&quot; face=&quot;Dancing Script&quot;&gt;&lt;font style=&quot;font-size: 40px&quot;&gt;&lt;b&gt;&lt;font data-font-src=&quot;https://fonts.googleapis.com/css?family=Dancing+Script&quot; style=&quot;font-size: 40px&quot; face=&quot;Dancing Script&quot;&gt;&lt;font face=&quot;Helvetica&quot;&gt;)&lt;/font&gt;&lt;/font&gt;&lt;/b&gt;&lt;/font&gt;&lt;/font&gt;&lt;/b&gt;&lt;/font&gt;&lt;font style=&quot;font-size: 40px&quot;&gt;&lt;b&gt;&lt;font data-font-src=&quot;https://fonts.googleapis.com/css?family=Dancing+Script&quot; style=&quot;font-size: 40px&quot; face=&quot;Dancing Script&quot;&gt;&lt;font style=&quot;font-size: 40px&quot;&gt;&lt;b&gt;&lt;font data-font-src=&quot;https://fonts.googleapis.com/css?family=Dancing+Script&quot; style=&quot;font-size: 40px&quot; face=&quot;Dancing Script&quot;&gt;&lt;font style=&quot;font-size: 40px&quot; face=&quot;Helvetica&quot;&gt;&lt;b&gt;&lt;font data-font-src=&quot;https://fonts.googleapis.com/css?family=Dancing+Script&quot; style=&quot;font-size: 40px&quot;&gt;&lt;font style=&quot;font-size: 40px&quot;&gt;&lt;sup&gt;2&lt;/sup&gt;&lt;/font&gt;&lt;/font&gt;&lt;/b&gt;&lt;/font&gt;&lt;/font&gt;&lt;/b&gt;&lt;/font&gt;&lt;/font&gt;&lt;font data-font-src=&quot;https://fonts.googleapis.com/css?family=Dancing+Script&quot; style=&quot;font-size: 40px&quot;&gt;&lt;font style=&quot;font-size: 40px&quot;&gt;&lt;font data-font-src=&quot;https://fonts.googleapis.com/css?family=Dancing+Script&quot; style=&quot;font-size: 40px&quot;&gt;&amp;nbsp;&lt;/font&gt;&lt;/font&gt;&lt;/font&gt;&lt;font data-font-src=&quot;https://fonts.googleapis.com/css?family=Dancing+Script&quot; style=&quot;font-size: 40px&quot; face=&quot;Dancing Script&quot;&gt;&lt;font style=&quot;font-size: 40px&quot;&gt;&lt;b&gt;&lt;font data-font-src=&quot;https://fonts.googleapis.com/css?family=Dancing+Script&quot; style=&quot;font-size: 40px&quot; face=&quot;Dancing Script&quot;&gt;&lt;sub&gt; &lt;/sub&gt;&lt;/font&gt;&lt;/b&gt;&lt;/font&gt;&lt;/font&gt;&lt;/b&gt;&lt;/font&gt;&lt;font style=&quot;font-size: 40px&quot;&gt;&lt;b&gt;&lt;font data-font-src=&quot;https://fonts.googleapis.com/css?family=Dancing+Script&quot; style=&quot;font-size: 40px&quot; face=&quot;Dancing Script&quot;&gt;&lt;font style=&quot;font-size: 40px&quot;&gt;&lt;b&gt;&lt;font data-font-src=&quot;https://fonts.googleapis.com/css?family=Dancing+Script&quot; style=&quot;font-size: 40px&quot; face=&quot;Dancing Script&quot;&gt;&lt;font style=&quot;font-size: 40px&quot;&gt;&lt;b&gt;&lt;font data-font-src=&quot;https://fonts.googleapis.com/css?family=Dancing+Script&quot; style=&quot;font-size: 40px&quot; face=&quot;Dancing Script&quot;&gt;.........&lt;/font&gt;&lt;/b&gt;&lt;/font&gt;&lt;/font&gt;&lt;/b&gt;&lt;/font&gt;&lt;/font&gt;&lt;/b&gt;&lt;/font&gt;&lt;font style=&quot;font-size: 40px&quot;&gt;&lt;b&gt;&lt;font data-font-src=&quot;https://fonts.googleapis.com/css?family=Dancing+Script&quot; style=&quot;font-size: 40px&quot; face=&quot;Dancing Script&quot;&gt;&lt;font style=&quot;font-size: 40px&quot;&gt;&lt;b&gt;&lt;font data-font-src=&quot;https://fonts.googleapis.com/css?family=Dancing+Script&quot; style=&quot;font-size: 40px&quot; face=&quot;Dancing Script&quot;&gt;&lt;font style=&quot;font-size: 40px&quot; face=&quot;Times New Roman&quot;&gt;&amp;nbsp;&lt;/font&gt;&lt;/font&gt;&lt;/b&gt;&lt;/font&gt;&lt;/font&gt;&lt;font data-font-src=&quot;https://fonts.googleapis.com/css?family=Dancing+Script&quot; style=&quot;font-size: 40px&quot; face=&quot;Dancing Script&quot;&gt;&lt;font style=&quot;font-size: 40px&quot;&gt;&lt;b&gt;&lt;font data-font-src=&quot;https://fonts.googleapis.com/css?family=Dancing+Script&quot; style=&quot;font-size: 40px&quot; face=&quot;Dancing Script&quot;&gt;&lt;font style=&quot;font-size: 40px&quot; face=&quot;Times New Roman&quot;&gt; &lt;/font&gt;&lt;/font&gt;&lt;/b&gt;&lt;/font&gt;&lt;font face=&quot;Helvetica&quot;&gt;(&lt;/font&gt;&lt;/font&gt;&lt;/b&gt;&lt;font data-font-src=&quot;https://fonts.googleapis.com/css?family=Dancing+Script&quot; style=&quot;font-size: 40px&quot; face=&quot;Dancing Script&quot;&gt;&lt;font face=&quot;Helvetica&quot;&gt;&lt;i&gt;U&lt;sub&gt;M&lt;/sub&gt;&lt;/i&gt;&lt;/font&gt;&lt;/font&gt;&lt;b&gt;&lt;font data-font-src=&quot;https://fonts.googleapis.com/css?family=Dancing+Script&quot; style=&quot;font-size: 40px&quot; face=&quot;Dancing Script&quot;&gt;&lt;font face=&quot;Helvetica&quot;&gt;)&lt;sup&gt;M&lt;/sup&gt;&lt;/font&gt;&lt;/font&gt;&lt;font data-font-src=&quot;https://fonts.googleapis.com/css?family=Dancing+Script&quot; style=&quot;font-size: 40px&quot;&gt; ]&lt;/font&gt;&lt;font data-font-src=&quot;https://fonts.googleapis.com/css?family=Dancing+Script&quot; style=&quot;font-size: 40px&quot; face=&quot;Dancing Script&quot;&gt; &lt;/font&gt;&lt;/b&gt;&lt;/font&gt;" style="text;html=1;strokeColor=none;fillColor=none;align=center;verticalAlign=middle;whiteSpace=wrap;rounded=0;" vertex="1" parent="1">
          <mxGeometry x="3093" y="1217.5" width="577" height="80" as="geometry" />
        </mxCell>
        <mxCell id="EXkiIg57ss1Epixbn9bt-127" value="&lt;font style=&quot;font-size: 35px&quot;&gt;Add all &lt;i&gt;U&lt;sub&gt;m&lt;/sub&gt;&lt;/i&gt; &lt;/font&gt;&lt;font face=&quot;Dancing Script&quot;&gt;&lt;b&gt;&amp;nbsp;&lt;/b&gt;&lt;/font&gt;&lt;font style=&quot;font-size: 35px&quot;&gt;&lt;b&gt;&lt;font data-font-src=&quot;https://fonts.googleapis.com/css?family=Dancing+Script&quot; style=&quot;font-size: 35px&quot; face=&quot;Dancing Script&quot;&gt; &lt;/font&gt;&lt;/b&gt;&lt;font data-font-src=&quot;https://fonts.googleapis.com/css?family=Dancing+Script&quot; style=&quot;font-size: 35px&quot; face=&quot;Dancing Script&quot;&gt;&lt;font style=&quot;font-size: 35px&quot; face=&quot;Helvetica&quot;&gt;matrices as following&lt;/font&gt;&lt;/font&gt;&lt;/font&gt;" style="text;html=1;strokeColor=none;fillColor=none;align=center;verticalAlign=middle;whiteSpace=wrap;rounded=0;" vertex="1" parent="1">
          <mxGeometry x="3097.5" y="1137.5" width="565" height="60" as="geometry" />
        </mxCell>
        <mxCell id="EXkiIg57ss1Epixbn9bt-128" style="edgeStyle=orthogonalEdgeStyle;rounded=0;orthogonalLoop=1;jettySize=auto;html=1;" edge="1" parent="1" source="EXkiIg57ss1Epixbn9bt-129" target="EXkiIg57ss1Epixbn9bt-130">
          <mxGeometry relative="1" as="geometry">
            <Array as="points">
              <mxPoint x="3380" y="1357.5" />
              <mxPoint x="3380" y="1357.5" />
            </Array>
          </mxGeometry>
        </mxCell>
        <mxCell id="EXkiIg57ss1Epixbn9bt-129" value="" style="shape=curlyBracket;whiteSpace=wrap;html=1;rounded=1;rotation=-90;" vertex="1" parent="1">
          <mxGeometry x="3368" y="1057.5" width="20" height="480" as="geometry" />
        </mxCell>
        <mxCell id="EXkiIg57ss1Epixbn9bt-130" value="&lt;br&gt;&lt;b&gt;&lt;font style=&quot;font-size: 40px&quot;&gt;U&lt;/font&gt;&lt;/b&gt;" style="rounded=0;whiteSpace=wrap;html=1;fillColor=#60a917;strokeColor=#2D7600;fontColor=#ffffff;" vertex="1" parent="1">
          <mxGeometry x="3320" y="1467.5" width="120" height="70" as="geometry" />
        </mxCell>
        <mxCell id="EXkiIg57ss1Epixbn9bt-131" value="" style="rounded=0;whiteSpace=wrap;html=1;fillColor=#76608a;strokeColor=#432D57;fontColor=#ffffff;" vertex="1" parent="1">
          <mxGeometry x="3650" y="1870" width="470" height="430" as="geometry" />
        </mxCell>
        <mxCell id="EXkiIg57ss1Epixbn9bt-132" style="edgeStyle=orthogonalEdgeStyle;rounded=0;orthogonalLoop=1;jettySize=auto;html=1;" edge="1" parent="1" source="EXkiIg57ss1Epixbn9bt-133" target="EXkiIg57ss1Epixbn9bt-134">
          <mxGeometry relative="1" as="geometry" />
        </mxCell>
        <mxCell id="EXkiIg57ss1Epixbn9bt-133" value="&lt;font style=&quot;font-size: 50px&quot;&gt;Kmeans on &lt;b&gt;U&lt;/b&gt;&lt;br&gt;&lt;/font&gt;" style="text;html=1;strokeColor=none;fillColor=none;align=center;verticalAlign=middle;whiteSpace=wrap;rounded=0;" vertex="1" parent="1">
          <mxGeometry x="3747.5" y="1920" width="270" height="80" as="geometry" />
        </mxCell>
        <mxCell id="EXkiIg57ss1Epixbn9bt-134" value="&lt;font style=&quot;font-size: 35px&quot;&gt;LABELS&lt;/font&gt;" style="rounded=0;whiteSpace=wrap;html=1;fillColor=#a20025;strokeColor=#6F0000;fontColor=#ffffff;" vertex="1" parent="1">
          <mxGeometry x="3787.5" y="2160" width="190" height="60" as="geometry" />
        </mxCell>
        <mxCell id="EXkiIg57ss1Epixbn9bt-135" value="&lt;font style=&quot;font-size: 19px&quot;&gt;matrix of k smallest eigenvectors of each &lt;font data-font-src=&quot;https://fonts.googleapis.com/css?family=Dancing+Script&quot; style=&quot;font-size: 19px&quot; face=&quot;Dancing Script&quot;&gt;G&lt;/font&gt;&lt;br&gt;&lt;/font&gt;" style="text;html=1;strokeColor=none;fillColor=none;align=center;verticalAlign=middle;whiteSpace=wrap;rounded=0;" vertex="1" parent="1">
          <mxGeometry x="1815" y="486.25" width="395" height="20" as="geometry" />
        </mxCell>
        <mxCell id="EXkiIg57ss1Epixbn9bt-136" style="edgeStyle=orthogonalEdgeStyle;rounded=0;orthogonalLoop=1;jettySize=auto;html=1;" edge="1" parent="1" source="EXkiIg57ss1Epixbn9bt-137" target="EXkiIg57ss1Epixbn9bt-139">
          <mxGeometry relative="1" as="geometry" />
        </mxCell>
        <mxCell id="EXkiIg57ss1Epixbn9bt-137" value="&lt;font style=&quot;font-size: 30px&quot;&gt;Method 7: Unweighted sum of iteratively orthogonalized &lt;i&gt;U&lt;/i&gt;&amp;nbsp;&lt;font style=&quot;font-size: 30px&quot;&gt;&lt;b&gt;&lt;font data-font-src=&quot;https://fonts.googleapis.com/css?family=Dancing+Script&quot; style=&quot;font-size: 30px&quot; face=&quot;Dancing Script&quot;&gt; &lt;br&gt;&lt;/font&gt;&lt;/b&gt;&lt;/font&gt;&lt;/font&gt;" style="rounded=0;whiteSpace=wrap;html=1;fillColor=#1ba1e2;strokeColor=#006EAF;fontColor=#ffffff;" vertex="1" parent="1">
          <mxGeometry x="3020" y="710" width="456" height="90" as="geometry" />
        </mxCell>
        <mxCell id="EXkiIg57ss1Epixbn9bt-138" style="edgeStyle=orthogonalEdgeStyle;rounded=0;orthogonalLoop=1;jettySize=auto;html=1;" edge="1" parent="1" source="EXkiIg57ss1Epixbn9bt-139" target="EXkiIg57ss1Epixbn9bt-131">
          <mxGeometry relative="1" as="geometry">
            <Array as="points">
              <mxPoint x="4015" y="1640" />
              <mxPoint x="3850" y="1640" />
            </Array>
          </mxGeometry>
        </mxCell>
        <mxCell id="EXkiIg57ss1Epixbn9bt-139" value="&lt;div align=&quot;justify&quot;&gt;&lt;font style=&quot;font-size: 45px&quot;&gt;&lt;b&gt;U &lt;/b&gt;= &lt;i&gt;U&lt;sub&gt;1&lt;/sub&gt;&lt;/i&gt;&lt;/font&gt;&lt;br&gt;&lt;/div&gt;&lt;div align=&quot;justify&quot;&gt;&lt;font style=&quot;font-size: 45px&quot;&gt;form m from 1 to M{&lt;/font&gt;&lt;/div&gt;&lt;div align=&quot;justify&quot;&gt;&lt;font style=&quot;font-size: 45px&quot;&gt;&amp;nbsp;&amp;nbsp; I = &lt;b&gt;U&lt;/b&gt; . &lt;i&gt;U&lt;sub&gt;m&lt;/sub&gt;&lt;/i&gt;&lt;br&gt;&lt;/font&gt;&lt;/div&gt;&lt;div align=&quot;justify&quot;&gt;&lt;font style=&quot;font-size: 45px&quot;&gt;&amp;nbsp;&amp;nbsp; P = &lt;b&gt;U&lt;/b&gt; . I&lt;/font&gt;&lt;br&gt;&lt;font style=&quot;font-size: 45px&quot;&gt;&amp;nbsp;&amp;nbsp; Q = &lt;i&gt;U&lt;sub&gt;m&lt;/sub&gt;&lt;/i&gt; - P&lt;/font&gt;&lt;/div&gt;&lt;div align=&quot;justify&quot;&gt;&lt;font style=&quot;font-size: 45px&quot;&gt;&amp;nbsp;&amp;nbsp; R = Orthogonalize(Q)&lt;/font&gt;&lt;/div&gt;&lt;div align=&quot;justify&quot;&gt;&lt;br&gt;&lt;font style=&quot;font-size: 45px&quot;&gt;&lt;/font&gt;&lt;font style=&quot;font-size: 45px&quot;&gt;&lt;font style=&quot;font-size: 45px&quot;&gt;&lt;/font&gt;&lt;/font&gt;&lt;/div&gt;&lt;div align=&quot;justify&quot;&gt;&lt;font style=&quot;font-size: 45px&quot;&gt;&amp;nbsp;&amp;nbsp; &lt;b&gt;U &lt;/b&gt;=&lt;b&gt; U &lt;/b&gt;+ R &lt;br&gt;&lt;/font&gt;&lt;/div&gt;&lt;div align=&quot;justify&quot;&gt;&lt;font style=&quot;font-size: 45px&quot;&gt;}&lt;br&gt;&lt;/font&gt;&lt;/div&gt;&lt;div align=&quot;justify&quot;&gt;&lt;font style=&quot;font-size: 45px&quot;&gt;&lt;br&gt;&lt;/font&gt;&lt;/div&gt;" style="rounded=0;whiteSpace=wrap;html=1;align=center;" vertex="1" parent="1">
          <mxGeometry x="3750" y="920" width="530" height="625" as="geometry" />
        </mxCell>
        <mxCell id="EXkiIg57ss1Epixbn9bt-140" value="&lt;font style=&quot;font-size: 45px&quot;&gt;return &lt;b&gt;U&lt;/b&gt;&lt;/font&gt;" style="rounded=0;whiteSpace=wrap;html=1;fillColor=#60a917;strokeColor=#2D7600;fontColor=#ffffff;" vertex="1" parent="1">
          <mxGeometry x="3920" y="1467.5" width="190" height="60" as="geometry" />
        </mxCell>
        <mxCell id="EXkiIg57ss1Epixbn9bt-141" style="edgeStyle=orthogonalEdgeStyle;rounded=0;orthogonalLoop=1;jettySize=auto;html=1;" edge="1" parent="1" source="EXkiIg57ss1Epixbn9bt-142" target="EXkiIg57ss1Epixbn9bt-146">
          <mxGeometry relative="1" as="geometry" />
        </mxCell>
        <mxCell id="EXkiIg57ss1Epixbn9bt-142" value="&lt;font style=&quot;font-size: 30px&quot;&gt;Method 8: Weighted sum of iteratively orthogonalized &lt;i&gt;U&lt;/i&gt;&amp;nbsp;&lt;font style=&quot;font-size: 30px&quot;&gt;&lt;b&gt;&lt;font data-font-src=&quot;https://fonts.googleapis.com/css?family=Dancing+Script&quot; style=&quot;font-size: 30px&quot; face=&quot;Dancing Script&quot;&gt; &lt;br&gt;&lt;/font&gt;&lt;/b&gt;&lt;/font&gt;&lt;/font&gt;" style="rounded=0;whiteSpace=wrap;html=1;fillColor=#1ba1e2;strokeColor=#006EAF;fontColor=#ffffff;" vertex="1" parent="1">
          <mxGeometry x="3020" y="560" width="456" height="90" as="geometry" />
        </mxCell>
        <mxCell id="EXkiIg57ss1Epixbn9bt-143" style="edgeStyle=orthogonalEdgeStyle;rounded=0;orthogonalLoop=1;jettySize=auto;html=1;" edge="1" parent="1" source="EXkiIg57ss1Epixbn9bt-144" target="EXkiIg57ss1Epixbn9bt-148">
          <mxGeometry relative="1" as="geometry" />
        </mxCell>
        <mxCell id="EXkiIg57ss1Epixbn9bt-144" value="&lt;font style=&quot;font-size: 30px&quot;&gt;Method 9: Unweighted Concatenation of iteratively orthogonalized &lt;i&gt;U&lt;/i&gt;&amp;nbsp;&lt;font style=&quot;font-size: 30px&quot;&gt;&lt;b&gt;&lt;font data-font-src=&quot;https://fonts.googleapis.com/css?family=Dancing+Script&quot; style=&quot;font-size: 30px&quot; face=&quot;Dancing Script&quot;&gt; &lt;br&gt;&lt;/font&gt;&lt;/b&gt;&lt;/font&gt;&lt;/font&gt;" style="rounded=0;whiteSpace=wrap;html=1;fillColor=#1ba1e2;strokeColor=#006EAF;fontColor=#ffffff;" vertex="1" parent="1">
          <mxGeometry x="3020" y="300" width="456" height="147.5" as="geometry" />
        </mxCell>
        <mxCell id="EXkiIg57ss1Epixbn9bt-145" style="edgeStyle=orthogonalEdgeStyle;rounded=0;orthogonalLoop=1;jettySize=auto;html=1;entryX=0.656;entryY=-0.005;entryDx=0;entryDy=0;entryPerimeter=0;" edge="1" parent="1" source="EXkiIg57ss1Epixbn9bt-146" target="EXkiIg57ss1Epixbn9bt-131">
          <mxGeometry relative="1" as="geometry">
            <Array as="points">
              <mxPoint x="4605" y="1690" />
              <mxPoint x="3958" y="1690" />
            </Array>
          </mxGeometry>
        </mxCell>
        <mxCell id="EXkiIg57ss1Epixbn9bt-146" value="&lt;div align=&quot;justify&quot;&gt;&lt;font style=&quot;font-size: 45px&quot;&gt;&lt;b&gt;U &lt;/b&gt;= &lt;i&gt;U&lt;sub&gt;1&lt;/sub&gt;&lt;/i&gt;&lt;/font&gt;&lt;br&gt;&lt;/div&gt;&lt;div align=&quot;justify&quot;&gt;&lt;font style=&quot;font-size: 45px&quot;&gt;form m from 1 to M{&lt;/font&gt;&lt;/div&gt;&lt;div align=&quot;justify&quot;&gt;&lt;font style=&quot;font-size: 45px&quot;&gt;&amp;nbsp;&amp;nbsp; I = &lt;b&gt;U&lt;/b&gt; . &lt;i&gt;U&lt;sub&gt;m&lt;/sub&gt;&lt;/i&gt;&lt;br&gt;&lt;/font&gt;&lt;/div&gt;&lt;div align=&quot;justify&quot;&gt;&lt;font style=&quot;font-size: 45px&quot;&gt;&amp;nbsp;&amp;nbsp; P = &lt;b&gt;U&lt;/b&gt; . I&lt;/font&gt;&lt;br&gt;&lt;font style=&quot;font-size: 45px&quot;&gt;&amp;nbsp;&amp;nbsp; Q = &lt;i&gt;U&lt;sub&gt;m&lt;/sub&gt;&lt;/i&gt; - P&lt;/font&gt;&lt;/div&gt;&lt;div align=&quot;justify&quot;&gt;&lt;font style=&quot;font-size: 45px&quot;&gt;&amp;nbsp;&amp;nbsp; R = Orthogonalize(Q)&lt;/font&gt;&lt;/div&gt;&lt;div align=&quot;justify&quot;&gt;&lt;br&gt;&lt;font style=&quot;font-size: 45px&quot;&gt;&lt;/font&gt;&lt;font style=&quot;font-size: 45px&quot;&gt;&lt;font style=&quot;font-size: 45px&quot;&gt;&lt;/font&gt;&lt;/font&gt;&lt;/div&gt;&lt;div align=&quot;justify&quot;&gt;&lt;font style=&quot;font-size: 45px&quot;&gt;&amp;nbsp;&amp;nbsp; &lt;b&gt;U &lt;/b&gt;=&lt;b&gt; U &lt;/b&gt;+ ([R])&lt;sup&gt;m&lt;/sup&gt; &lt;br&gt;&lt;/font&gt;&lt;/div&gt;&lt;div align=&quot;justify&quot;&gt;&lt;font style=&quot;font-size: 45px&quot;&gt;}&lt;br&gt;&lt;/font&gt;&lt;/div&gt;&lt;div align=&quot;justify&quot;&gt;&lt;font style=&quot;font-size: 45px&quot;&gt;&lt;br&gt;&lt;/font&gt;&lt;/div&gt;" style="rounded=0;whiteSpace=wrap;html=1;align=center;" vertex="1" parent="1">
          <mxGeometry x="4340" y="925" width="530" height="625" as="geometry" />
        </mxCell>
        <mxCell id="EXkiIg57ss1Epixbn9bt-147" style="edgeStyle=orthogonalEdgeStyle;rounded=0;orthogonalLoop=1;jettySize=auto;html=1;" edge="1" parent="1" source="EXkiIg57ss1Epixbn9bt-148" target="EXkiIg57ss1Epixbn9bt-131">
          <mxGeometry relative="1" as="geometry">
            <Array as="points">
              <mxPoint x="5205" y="1980" />
            </Array>
          </mxGeometry>
        </mxCell>
        <mxCell id="EXkiIg57ss1Epixbn9bt-148" value="&lt;div align=&quot;justify&quot;&gt;&lt;font style=&quot;font-size: 45px&quot;&gt;&lt;b&gt;U &lt;/b&gt;= &lt;i&gt;U&lt;sub&gt;1&lt;/sub&gt;&lt;/i&gt;&lt;/font&gt;&lt;br&gt;&lt;/div&gt;&lt;div align=&quot;justify&quot;&gt;&lt;font style=&quot;font-size: 45px&quot;&gt;form m from 1 to M{&lt;/font&gt;&lt;/div&gt;&lt;div align=&quot;justify&quot;&gt;&lt;font style=&quot;font-size: 45px&quot;&gt;&amp;nbsp;&amp;nbsp; I = &lt;b&gt;U&lt;/b&gt; . &lt;i&gt;U&lt;sub&gt;m&lt;/sub&gt;&lt;/i&gt;&lt;br&gt;&lt;/font&gt;&lt;/div&gt;&lt;div align=&quot;justify&quot;&gt;&lt;font style=&quot;font-size: 45px&quot;&gt;&amp;nbsp;&amp;nbsp; P = &lt;b&gt;U&lt;/b&gt; . I&lt;/font&gt;&lt;br&gt;&lt;font style=&quot;font-size: 45px&quot;&gt;&amp;nbsp;&amp;nbsp; Q = &lt;i&gt;U&lt;sub&gt;m&lt;/sub&gt;&lt;/i&gt; - P&lt;/font&gt;&lt;/div&gt;&lt;div align=&quot;justify&quot;&gt;&lt;font style=&quot;font-size: 45px&quot;&gt;&amp;nbsp;&amp;nbsp; R = Orthogonalize(Q)&lt;/font&gt;&lt;/div&gt;&lt;div align=&quot;justify&quot;&gt;&lt;br&gt;&lt;font style=&quot;font-size: 45px&quot;&gt;&lt;/font&gt;&lt;font style=&quot;font-size: 45px&quot;&gt;&lt;font style=&quot;font-size: 45px&quot;&gt;&lt;/font&gt;&lt;/font&gt;&lt;/div&gt;&lt;div align=&quot;justify&quot;&gt;&lt;font style=&quot;font-size: 45px&quot;&gt;&amp;nbsp;&amp;nbsp; &lt;b&gt;U &lt;/b&gt;=&lt;b&gt; [ U&amp;nbsp;&amp;nbsp; &lt;/b&gt;R &lt;b&gt;]&lt;/b&gt; &lt;br&gt;&lt;/font&gt;&lt;/div&gt;&lt;div align=&quot;justify&quot;&gt;&lt;font style=&quot;font-size: 45px&quot;&gt;}&lt;br&gt;&lt;/font&gt;&lt;/div&gt;&lt;div align=&quot;justify&quot;&gt;&lt;font style=&quot;font-size: 45px&quot;&gt;&lt;br&gt;&lt;/font&gt;&lt;/div&gt;" style="rounded=0;whiteSpace=wrap;html=1;align=center;" vertex="1" parent="1">
          <mxGeometry x="4940" y="925" width="530" height="625" as="geometry" />
        </mxCell>
        <mxCell id="EXkiIg57ss1Epixbn9bt-149" style="edgeStyle=orthogonalEdgeStyle;rounded=0;orthogonalLoop=1;jettySize=auto;html=1;entryX=0.5;entryY=0;entryDx=0;entryDy=0;" edge="1" parent="1" source="EXkiIg57ss1Epixbn9bt-150" target="EXkiIg57ss1Epixbn9bt-152">
          <mxGeometry relative="1" as="geometry" />
        </mxCell>
        <mxCell id="EXkiIg57ss1Epixbn9bt-150" value="&lt;font style=&quot;font-size: 30px&quot;&gt;Method 10: Weighted Concatenation of iteratively orthogonalized &lt;i&gt;U&lt;/i&gt;&amp;nbsp;&lt;font style=&quot;font-size: 30px&quot;&gt;&lt;b&gt;&lt;font data-font-src=&quot;https://fonts.googleapis.com/css?family=Dancing+Script&quot; style=&quot;font-size: 30px&quot; face=&quot;Dancing Script&quot;&gt; &lt;br&gt;&lt;/font&gt;&lt;/b&gt;&lt;/font&gt;&lt;/font&gt;" style="rounded=0;whiteSpace=wrap;html=1;fillColor=#1ba1e2;strokeColor=#006EAF;fontColor=#ffffff;" vertex="1" parent="1">
          <mxGeometry x="3030" y="62.5" width="456" height="147.5" as="geometry" />
        </mxCell>
        <mxCell id="EXkiIg57ss1Epixbn9bt-151" style="edgeStyle=orthogonalEdgeStyle;rounded=0;orthogonalLoop=1;jettySize=auto;html=1;" edge="1" parent="1" source="EXkiIg57ss1Epixbn9bt-152" target="EXkiIg57ss1Epixbn9bt-131">
          <mxGeometry relative="1" as="geometry">
            <Array as="points">
              <mxPoint x="5895" y="2200" />
            </Array>
          </mxGeometry>
        </mxCell>
        <mxCell id="EXkiIg57ss1Epixbn9bt-152" value="&lt;div align=&quot;justify&quot;&gt;&lt;font style=&quot;font-size: 45px&quot;&gt;&lt;b&gt;U &lt;/b&gt;= &lt;i&gt;U&lt;sub&gt;1&lt;/sub&gt;&lt;/i&gt;&lt;/font&gt;&lt;br&gt;&lt;/div&gt;&lt;div align=&quot;justify&quot;&gt;&lt;font style=&quot;font-size: 45px&quot;&gt;form m from 1 to M{&lt;/font&gt;&lt;/div&gt;&lt;div align=&quot;justify&quot;&gt;&lt;font style=&quot;font-size: 45px&quot;&gt;&amp;nbsp;&amp;nbsp; I = &lt;b&gt;U&lt;/b&gt; . &lt;i&gt;U&lt;sub&gt;m&lt;/sub&gt;&lt;/i&gt;&lt;br&gt;&lt;/font&gt;&lt;/div&gt;&lt;div align=&quot;justify&quot;&gt;&lt;font style=&quot;font-size: 45px&quot;&gt;&amp;nbsp;&amp;nbsp; P = &lt;b&gt;U&lt;/b&gt; . I&lt;/font&gt;&lt;br&gt;&lt;font style=&quot;font-size: 45px&quot;&gt;&amp;nbsp;&amp;nbsp; Q = &lt;i&gt;U&lt;sub&gt;m&lt;/sub&gt;&lt;/i&gt; - P&lt;/font&gt;&lt;/div&gt;&lt;div align=&quot;justify&quot;&gt;&lt;font style=&quot;font-size: 45px&quot;&gt;&amp;nbsp;&amp;nbsp; R = Orthogonalize(Q)&lt;/font&gt;&lt;/div&gt;&lt;div align=&quot;justify&quot;&gt;&lt;br&gt;&lt;font style=&quot;font-size: 45px&quot;&gt;&lt;/font&gt;&lt;font style=&quot;font-size: 45px&quot;&gt;&lt;font style=&quot;font-size: 45px&quot;&gt;&lt;/font&gt;&lt;/font&gt;&lt;/div&gt;&lt;div align=&quot;justify&quot;&gt;&lt;font style=&quot;font-size: 45px&quot;&gt;&amp;nbsp;&amp;nbsp; &lt;b&gt;U &lt;/b&gt;=&lt;b&gt; [ U &amp;nbsp;&lt;/b&gt; ([R])&lt;sup&gt;m&lt;/sup&gt; &lt;b&gt;]&lt;/b&gt;&lt;br&gt;&lt;/font&gt;&lt;/div&gt;&lt;div align=&quot;justify&quot;&gt;&lt;font style=&quot;font-size: 45px&quot;&gt;}&lt;br&gt;&lt;/font&gt;&lt;/div&gt;&lt;div align=&quot;justify&quot;&gt;&lt;font style=&quot;font-size: 45px&quot;&gt;&lt;br&gt;&lt;/font&gt;&lt;/div&gt;" style="rounded=0;whiteSpace=wrap;html=1;align=center;" vertex="1" parent="1">
          <mxGeometry x="5630" y="925" width="530" height="625" as="geometry" />
        </mxCell>
        <mxCell id="EXkiIg57ss1Epixbn9bt-153" value="&lt;font style=&quot;font-size: 45px&quot;&gt;return &lt;b&gt;U&lt;/b&gt;&lt;/font&gt;" style="rounded=0;whiteSpace=wrap;html=1;fillColor=#60a917;strokeColor=#2D7600;fontColor=#ffffff;" vertex="1" parent="1">
          <mxGeometry x="4510" y="1465" width="190" height="60" as="geometry" />
        </mxCell>
        <mxCell id="EXkiIg57ss1Epixbn9bt-154" value="&lt;font style=&quot;font-size: 45px&quot;&gt;return &lt;b&gt;U&lt;/b&gt;&lt;/font&gt;" style="rounded=0;whiteSpace=wrap;html=1;fillColor=#60a917;strokeColor=#2D7600;fontColor=#ffffff;" vertex="1" parent="1">
          <mxGeometry x="5110" y="1465" width="190" height="60" as="geometry" />
        </mxCell>
        <mxCell id="EXkiIg57ss1Epixbn9bt-155" value="&lt;font style=&quot;font-size: 45px&quot;&gt;return &lt;b&gt;U&lt;/b&gt;&lt;/font&gt;" style="rounded=0;whiteSpace=wrap;html=1;fillColor=#60a917;strokeColor=#2D7600;fontColor=#ffffff;" vertex="1" parent="1">
          <mxGeometry x="5800" y="1465" width="190" height="60" as="geometry" />
        </mxCell>
      </root>
    </mxGraphModel>
  </diagram>
</mxfile>
